<svg class="main-svg" xmlns="http://www.w3.org/2000/svg" xmlns:xlink="http://www.w3.org/1999/xlink" width="800" height="550" style="" viewBox="0 0 800 550"><rect x="0" y="0" width="800" height="550" style="fill: rgb(0, 0, 0); fill-opacity: 0;"/><defs id="defs-d464ef"><g class="clips"><clipPath id="clipd464efxyplot" class="plotclip"><rect width="584" height="390"/></clipPath><clipPath class="axesclip" id="clipd464efx"><rect x="72" y="0" width="584" height="550"/></clipPath><clipPath class="axesclip" id="clipd464efy"><rect x="0" y="100" width="800" height="390"/></clipPath><clipPath class="axesclip" id="clipd464efxy"><rect x="72" y="100" width="584" height="390"/></clipPath></g><g class="gradients"/><g class="patterns"/></defs><g class="bglayer"><rect class="bg" x="72" y="100" width="584" height="390" style="fill: rgb(0, 0, 0); fill-opacity: 0; stroke-width: 0;"/></g><g class="layer-below"><g class="imagelayer"/><g class="shapelayer"/></g><g class="cartesianlayer"><g class="subplot xy"><g class="layer-subplot"><g class="shapelayer"/><g class="imagelayer"/></g><g class="minor-gridlayer"><g class="x"/><g class="y"/></g><g class="gridlayer"><g class="x"/><g class="y"><path class="ygrid crisp" transform="translate(0,459.32)" d="M72,0h584" style="stroke: rgb(235, 240, 248); stroke-opacity: 1; stroke-width: 1px;"/><path class="ygrid crisp" transform="translate(0,412.9)" d="M72,0h584" style="stroke: rgb(235, 240, 248); stroke-opacity: 1; stroke-width: 1px;"/><path class="ygrid crisp" transform="translate(0,366.49)" d="M72,0h584" style="stroke: rgb(235, 240, 248); stroke-opacity: 1; stroke-width: 1px;"/><path class="ygrid crisp" transform="translate(0,320.07)" d="M72,0h584" style="stroke: rgb(235, 240, 248); stroke-opacity: 1; stroke-width: 1px;"/><path class="ygrid crisp" transform="translate(0,273.65)" d="M72,0h584" style="stroke: rgb(235, 240, 248); stroke-opacity: 1; stroke-width: 1px;"/><path class="ygrid crisp" transform="translate(0,227.23000000000002)" d="M72,0h584" style="stroke: rgb(235, 240, 248); stroke-opacity: 1; stroke-width: 1px;"/><path class="ygrid crisp" transform="translate(0,180.81)" d="M72,0h584" style="stroke: rgb(235, 240, 248); stroke-opacity: 1; stroke-width: 1px;"/><path class="ygrid crisp" transform="translate(0,134.39)" d="M72,0h584" style="stroke: rgb(235, 240, 248); stroke-opacity: 1; stroke-width: 1px;"/></g></g><g class="zerolinelayer"/><g class="layer-between"><g class="shapelayer"/><g class="imagelayer"/></g><path class="xlines-below"/><path class="ylines-below"/><g class="overlines-below"/><g class="xaxislayer-below"/><g class="yaxislayer-below"/><g class="overaxes-below"/><g class="overplot"><g class="xy" transform="translate(72,100)" clip-path="url(#clipd464efxyplot)"><g class="scatterlayer mlayer"><g class="trace scatter trace4e81b2" style="stroke-miterlimit: 2; opacity: 1;"><g class="fills"/><g class="errorbars"/><g class="lines"><path class="js-line" d="M32.95,23.25L90.52,91.02L148.08,72.45L205.65,91.02L263.22,107.73L320.78,157.86L378.35,147.65L435.92,76.17L493.48,147.65L551.05,193.14" style="vector-effect: none; fill: none; stroke: rgb(106, 27, 154); stroke-opacity: 1; stroke-width: 3px; opacity: 1;"/></g><g class="points"><path class="point" transform="translate(32.95,23.25)" d="M3,0A3,3 0 1,1 0,-3A3,3 0 0,1 3,0Z" style="opacity: 1; stroke-width: 0px; fill: rgb(106, 27, 154); fill-opacity: 1;"/><path class="point" transform="translate(90.52,91.02)" d="M3,0A3,3 0 1,1 0,-3A3,3 0 0,1 3,0Z" style="opacity: 1; stroke-width: 0px; fill: rgb(106, 27, 154); fill-opacity: 1;"/><path class="point" transform="translate(148.08,72.45)" d="M3,0A3,3 0 1,1 0,-3A3,3 0 0,1 3,0Z" style="opacity: 1; stroke-width: 0px; fill: rgb(106, 27, 154); fill-opacity: 1;"/><path class="point" transform="translate(205.65,91.02)" d="M3,0A3,3 0 1,1 0,-3A3,3 0 0,1 3,0Z" style="opacity: 1; stroke-width: 0px; fill: rgb(106, 27, 154); fill-opacity: 1;"/><path class="point" transform="translate(263.22,107.73)" d="M3,0A3,3 0 1,1 0,-3A3,3 0 0,1 3,0Z" style="opacity: 1; stroke-width: 0px; fill: rgb(106, 27, 154); fill-opacity: 1;"/><path class="point" transform="translate(320.78,157.86)" d="M3,0A3,3 0 1,1 0,-3A3,3 0 0,1 3,0Z" style="opacity: 1; stroke-width: 0px; fill: rgb(106, 27, 154); fill-opacity: 1;"/><path class="point" transform="translate(378.35,147.65)" d="M3,0A3,3 0 1,1 0,-3A3,3 0 0,1 3,0Z" style="opacity: 1; stroke-width: 0px; fill: rgb(106, 27, 154); fill-opacity: 1;"/><path class="point" transform="translate(435.92,76.17)" d="M3,0A3,3 0 1,1 0,-3A3,3 0 0,1 3,0Z" style="opacity: 1; stroke-width: 0px; fill: rgb(106, 27, 154); fill-opacity: 1;"/><path class="point" transform="translate(493.48,147.65)" d="M3,0A3,3 0 1,1 0,-3A3,3 0 0,1 3,0Z" style="opacity: 1; stroke-width: 0px; fill: rgb(106, 27, 154); fill-opacity: 1;"/><path class="point" transform="translate(551.05,193.14)" d="M3,0A3,3 0 1,1 0,-3A3,3 0 0,1 3,0Z" style="opacity: 1; stroke-width: 0px; fill: rgb(106, 27, 154); fill-opacity: 1;"/></g><g class="text"/></g><g class="trace scatter trace0d4ebc" style="stroke-miterlimit: 2; opacity: 1;"><g class="fills"/><g class="errorbars"/><g class="lines"><path class="js-line" d="M32.95,324.04L90.52,341.68L148.08,330.54L205.65,318.47L263.22,312.9L320.78,328.69L378.35,338.9L435.92,334.26L493.48,324.04L551.05,355.61" style="vector-effect: none; fill: none; stroke: rgb(234, 86, 140); stroke-opacity: 1; stroke-width: 3px; opacity: 1;"/></g><g class="points"><path class="point" transform="translate(32.95,324.04)" d="M3,0A3,3 0 1,1 0,-3A3,3 0 0,1 3,0Z" style="opacity: 1; stroke-width: 0px; fill: rgb(234, 86, 140); fill-opacity: 1;"/><path class="point" transform="translate(90.52,341.68)" d="M3,0A3,3 0 1,1 0,-3A3,3 0 0,1 3,0Z" style="opacity: 1; stroke-width: 0px; fill: rgb(234, 86, 140); fill-opacity: 1;"/><path class="point" transform="translate(148.08,330.54)" d="M3,0A3,3 0 1,1 0,-3A3,3 0 0,1 3,0Z" style="opacity: 1; stroke-width: 0px; fill: rgb(234, 86, 140); fill-opacity: 1;"/><path class="point" transform="translate(205.65,318.47)" d="M3,0A3,3 0 1,1 0,-3A3,3 0 0,1 3,0Z" style="opacity: 1; stroke-width: 0px; fill: rgb(234, 86, 140); fill-opacity: 1;"/><path class="point" transform="translate(263.22,312.9)" d="M3,0A3,3 0 1,1 0,-3A3,3 0 0,1 3,0Z" style="opacity: 1; stroke-width: 0px; fill: rgb(234, 86, 140); fill-opacity: 1;"/><path class="point" transform="translate(320.78,328.69)" d="M3,0A3,3 0 1,1 0,-3A3,3 0 0,1 3,0Z" style="opacity: 1; stroke-width: 0px; fill: rgb(234, 86, 140); fill-opacity: 1;"/><path class="point" transform="translate(378.35,338.9)" d="M3,0A3,3 0 1,1 0,-3A3,3 0 0,1 3,0Z" style="opacity: 1; stroke-width: 0px; fill: rgb(234, 86, 140); fill-opacity: 1;"/><path class="point" transform="translate(435.92,334.26)" d="M3,0A3,3 0 1,1 0,-3A3,3 0 0,1 3,0Z" style="opacity: 1; stroke-width: 0px; fill: rgb(234, 86, 140); fill-opacity: 1;"/><path class="point" transform="translate(493.48,324.04)" d="M3,0A3,3 0 1,1 0,-3A3,3 0 0,1 3,0Z" style="opacity: 1; stroke-width: 0px; fill: rgb(234, 86, 140); fill-opacity: 1;"/><path class="point" transform="translate(551.05,355.61)" d="M3,0A3,3 0 1,1 0,-3A3,3 0 0,1 3,0Z" style="opacity: 1; stroke-width: 0px; fill: rgb(234, 86, 140); fill-opacity: 1;"/></g><g class="text"/></g><g class="trace scatter tracea779dd" style="stroke-miterlimit: 2; opacity: 1;"><g class="fills"/><g class="errorbars"/><g class="lines"><path class="js-line" d="M32.95,366.75L90.52,349.11L148.08,323.12L205.65,315.69L263.22,330.54L320.78,326.83L378.35,343.54L435.92,352.82L493.48,324.97L551.05,348.18" style="vector-effect: none; fill: none; stroke: rgb(46, 134, 193); stroke-opacity: 1; stroke-width: 3px; opacity: 1;"/></g><g class="points"><path class="point" transform="translate(32.95,366.75)" d="M3,0A3,3 0 1,1 0,-3A3,3 0 0,1 3,0Z" style="opacity: 1; stroke-width: 0px; fill: rgb(46, 134, 193); fill-opacity: 1;"/><path class="point" transform="translate(90.52,349.11)" d="M3,0A3,3 0 1,1 0,-3A3,3 0 0,1 3,0Z" style="opacity: 1; stroke-width: 0px; fill: rgb(46, 134, 193); fill-opacity: 1;"/><path class="point" transform="translate(148.08,323.12)" d="M3,0A3,3 0 1,1 0,-3A3,3 0 0,1 3,0Z" style="opacity: 1; stroke-width: 0px; fill: rgb(46, 134, 193); fill-opacity: 1;"/><path class="point" transform="translate(205.65,315.69)" d="M3,0A3,3 0 1,1 0,-3A3,3 0 0,1 3,0Z" style="opacity: 1; stroke-width: 0px; fill: rgb(46, 134, 193); fill-opacity: 1;"/><path class="point" transform="translate(263.22,330.54)" d="M3,0A3,3 0 1,1 0,-3A3,3 0 0,1 3,0Z" style="opacity: 1; stroke-width: 0px; fill: rgb(46, 134, 193); fill-opacity: 1;"/><path class="point" transform="translate(320.78,326.83)" d="M3,0A3,3 0 1,1 0,-3A3,3 0 0,1 3,0Z" style="opacity: 1; stroke-width: 0px; fill: rgb(46, 134, 193); fill-opacity: 1;"/><path class="point" transform="translate(378.35,343.54)" d="M3,0A3,3 0 1,1 0,-3A3,3 0 0,1 3,0Z" style="opacity: 1; stroke-width: 0px; fill: rgb(46, 134, 193); fill-opacity: 1;"/><path class="point" transform="translate(435.92,352.82)" d="M3,0A3,3 0 1,1 0,-3A3,3 0 0,1 3,0Z" style="opacity: 1; stroke-width: 0px; fill: rgb(46, 134, 193); fill-opacity: 1;"/><path class="point" transform="translate(493.48,324.97)" d="M3,0A3,3 0 1,1 0,-3A3,3 0 0,1 3,0Z" style="opacity: 1; stroke-width: 0px; fill: rgb(46, 134, 193); fill-opacity: 1;"/><path class="point" transform="translate(551.05,348.18)" d="M3,0A3,3 0 1,1 0,-3A3,3 0 0,1 3,0Z" style="opacity: 1; stroke-width: 0px; fill: rgb(46, 134, 193); fill-opacity: 1;"/></g><g class="text"/></g></g></g></g><g class="zerolinelayer-above"/><path class="xlines-above crisp" d="M71,490.5H656" style="fill: none; stroke-width: 1px; stroke: rgb(0, 0, 0); stroke-opacity: 1;"/><path class="ylines-above crisp" d="M71.5,100V490" style="fill: none; stroke-width: 1px; stroke: rgb(235, 240, 248); stroke-opacity: 1;"/><g class="overlines-above"/><g class="xaxislayer-above"><g class="xtick"><text text-anchor="middle" x="0" y="506.6" transform="translate(104.95,0)" style="font-family: Tahoma; font-size: 13px; fill: rgb(0, 0, 0); fill-opacity: 1; white-space: pre;">2014</text></g><g class="xtick"><text text-anchor="middle" x="0" y="506.6" style="font-family: Tahoma; font-size: 13px; fill: rgb(0, 0, 0); fill-opacity: 1; white-space: pre;" transform="translate(162.51999999999998,0)">2015</text></g><g class="xtick"><text text-anchor="middle" x="0" y="506.6" style="font-family: Tahoma; font-size: 13px; fill: rgb(0, 0, 0); fill-opacity: 1; white-space: pre;" transform="translate(220.08,0)">2016</text></g><g class="xtick"><text text-anchor="middle" x="0" y="506.6" style="font-family: Tahoma; font-size: 13px; fill: rgb(0, 0, 0); fill-opacity: 1; white-space: pre;" transform="translate(277.65,0)">2017</text></g><g class="xtick"><text text-anchor="middle" x="0" y="506.6" style="font-family: Tahoma; font-size: 13px; fill: rgb(0, 0, 0); fill-opacity: 1; white-space: pre;" transform="translate(335.22,0)">2018</text></g><g class="xtick"><text text-anchor="middle" x="0" y="506.6" style="font-family: Tahoma; font-size: 13px; fill: rgb(0, 0, 0); fill-opacity: 1; white-space: pre;" transform="translate(392.78,0)">2019</text></g><g class="xtick"><text text-anchor="middle" x="0" y="506.6" style="font-family: Tahoma; font-size: 13px; fill: rgb(0, 0, 0); fill-opacity: 1; white-space: pre;" transform="translate(450.35,0)">2020</text></g><g class="xtick"><text text-anchor="middle" x="0" y="506.6" style="font-family: Tahoma; font-size: 13px; fill: rgb(0, 0, 0); fill-opacity: 1; white-space: pre;" transform="translate(507.92,0)">2021</text></g><g class="xtick"><text text-anchor="middle" x="0" y="506.6" style="font-family: Tahoma; font-size: 13px; fill: rgb(0, 0, 0); fill-opacity: 1; white-space: pre;" transform="translate(565.48,0)">2022</text></g><g class="xtick"><text text-anchor="middle" x="0" y="506.6" style="font-family: Tahoma; font-size: 13px; fill: rgb(0, 0, 0); fill-opacity: 1; white-space: pre;" transform="translate(623.05,0)">2023</text></g></g><g class="yaxislayer-above"><g class="ytick"><text text-anchor="end" x="68.4" y="4.55" transform="translate(0,459.32)" style="font-family: Tahoma; font-size: 13px; fill: rgb(0, 0, 0); fill-opacity: 1; white-space: pre;">50  </text></g><g class="ytick"><text text-anchor="end" x="68.4" y="4.55" style="font-family: Tahoma; font-size: 13px; fill: rgb(0, 0, 0); fill-opacity: 1; white-space: pre;" transform="translate(0,412.9)">100  </text></g><g class="ytick"><text text-anchor="end" x="68.4" y="4.55" style="font-family: Tahoma; font-size: 13px; fill: rgb(0, 0, 0); fill-opacity: 1; white-space: pre;" transform="translate(0,366.49)">150  </text></g><g class="ytick"><text text-anchor="end" x="68.4" y="4.55" style="font-family: Tahoma; font-size: 13px; fill: rgb(0, 0, 0); fill-opacity: 1; white-space: pre;" transform="translate(0,320.07)">200  </text></g><g class="ytick"><text text-anchor="end" x="68.4" y="4.55" style="font-family: Tahoma; font-size: 13px; fill: rgb(0, 0, 0); fill-opacity: 1; white-space: pre;" transform="translate(0,273.65)">250  </text></g><g class="ytick"><text text-anchor="end" x="68.4" y="4.55" style="font-family: Tahoma; font-size: 13px; fill: rgb(0, 0, 0); fill-opacity: 1; white-space: pre;" transform="translate(0,227.23000000000002)">300  </text></g><g class="ytick"><text text-anchor="end" x="68.4" y="4.55" style="font-family: Tahoma; font-size: 13px; fill: rgb(0, 0, 0); fill-opacity: 1; white-space: pre;" transform="translate(0,180.81)">350  </text></g><g class="ytick"><text text-anchor="end" x="68.4" y="4.55" style="font-family: Tahoma; font-size: 13px; fill: rgb(0, 0, 0); fill-opacity: 1; white-space: pre;" transform="translate(0,134.39)">400  </text></g></g><g class="overaxes-above"/></g></g><g class="polarlayer"/><g class="smithlayer"/><g class="ternarylayer"/><g class="geolayer"/><g class="funnelarealayer"/><g class="pielayer"/><g class="iciclelayer"/><g class="treemaplayer"/><g class="sunburstlayer"/><g class="glimages"/><defs id="topdefs-d464ef"><g class="clips"/><clipPath id="legendd464ef"><rect width="120" height="67" x="0" y="0"/></clipPath></defs><g class="layer-above"><g class="imagelayer"/><g class="shapelayer"/></g><g class="infolayer"><g class="legend" pointer-events="all" transform="translate(667.6800000000001,107.80000000000001)"><rect class="bg" shape-rendering="crispEdges" style="stroke: rgb(68, 68, 68); stroke-opacity: 1; fill: rgb(0, 0, 0); fill-opacity: 0; stroke-width: 0px;" width="120" height="67" x="0" y="0"/><g class="scrollbox" transform="" clip-path="url(#legendd464ef)"><g class="groups"><g class="traces" transform="translate(0,14.5)" style="opacity: 1;"><text class="legendtext" text-anchor="start" x="40" y="4.680000000000001" style="font-family: Tahoma; font-size: 12px; fill: rgb(0, 0, 0); fill-opacity: 1; white-space: pre;">1-2 producers</text><g class="layers" style="opacity: 1;"><g class="legendfill"/><g class="legendlines"><path class="js-line" d="M5,0h30" style="fill: none; stroke: rgb(106, 27, 154); stroke-opacity: 1; stroke-width: 3px;"/></g><g class="legendsymbols"><g class="legendpoints"><path class="scatterpts" transform="translate(20,0)" d="M3,0A3,3 0 1,1 0,-3A3,3 0 0,1 3,0Z" style="opacity: 1; stroke-width: 0px; fill: rgb(106, 27, 154); fill-opacity: 1;"/></g></g></g><rect class="legendtoggle" x="0" y="-9.5" width="114.126953125" height="19" style="fill: rgb(0, 0, 0); fill-opacity: 0;"/></g><g class="traces" transform="translate(0,33.5)" style="opacity: 1;"><text class="legendtext" text-anchor="start" x="40" y="4.680000000000001" style="font-family: Tahoma; font-size: 12px; fill: rgb(0, 0, 0); fill-opacity: 1; white-space: pre;">3-5 producers</text><g class="layers" style="opacity: 1;"><g class="legendfill"/><g class="legendlines"><path class="js-line" d="M5,0h30" style="fill: none; stroke: rgb(234, 86, 140); stroke-opacity: 1; stroke-width: 3px;"/></g><g class="legendsymbols"><g class="legendpoints"><path class="scatterpts" transform="translate(20,0)" d="M3,0A3,3 0 1,1 0,-3A3,3 0 0,1 3,0Z" style="opacity: 1; stroke-width: 0px; fill: rgb(234, 86, 140); fill-opacity: 1;"/></g></g></g><rect class="legendtoggle" x="0" y="-9.5" width="114.126953125" height="19" style="fill: rgb(0, 0, 0); fill-opacity: 0;"/></g><g class="traces" transform="translate(0,52.5)" style="opacity: 1;"><text class="legendtext" text-anchor="start" x="40" y="4.680000000000001" style="font-family: Tahoma; font-size: 12px; fill: rgb(0, 0, 0); fill-opacity: 1; white-space: pre;">6+ producers</text><g class="layers" style="opacity: 1;"><g class="legendfill"/><g class="legendlines"><path class="js-line" d="M5,0h30" style="fill: none; stroke: rgb(46, 134, 193); stroke-opacity: 1; stroke-width: 3px;"/></g><g class="legendsymbols"><g class="legendpoints"><path class="scatterpts" transform="translate(20,0)" d="M3,0A3,3 0 1,1 0,-3A3,3 0 0,1 3,0Z" style="opacity: 1; stroke-width: 0px; fill: rgb(46, 134, 193); fill-opacity: 1;"/></g></g></g><rect class="legendtoggle" x="0" y="-9.5" width="114.126953125" height="19" style="fill: rgb(0, 0, 0); fill-opacity: 0;"/></g></g></g><rect class="scrollbar" rx="20" ry="3" width="0" height="0" style="fill: rgb(128, 139, 164); fill-opacity: 1;" x="0" y="0"/></g><g class="g-gtitle"><text class="gtitle" x="16" y="27.5" text-anchor="start" dy="0.7em" style="opacity: 1; font-family: Tahoma; font-size: 18px; fill: rgb(0, 0, 0); fill-opacity: 1; white-space: pre;"><tspan class="line" dy="0em" x="16" y="27.5"><tspan style="font-weight:bold">Small Teams Consistently Drive Anime Volume</tspan></tspan><tspan class="line" dy="1.3em" x="16" y="27.5"><tspan style=" fill:#555555; font-size:14px">(Annual Production Volume by Collaboration Size In 2014 - 2023)</tspan></tspan></text></g><g class="g-xtitle"/><g class="g-ytitle"><text class="ytitle" transform="rotate(-90,17.878515625,295)" x="17.878515625" y="295" text-anchor="middle" style="opacity: 1; font-family: Tahoma; font-size: 16px; fill: rgb(0, 0, 0); fill-opacity: 1; white-space: pre;">Number of Anime</text></g></g></svg>