<svg class="main-svg" xmlns="http://www.w3.org/2000/svg" xmlns:xlink="http://www.w3.org/1999/xlink" width="800" height="550" style="" viewBox="0 0 800 550"><rect x="0" y="0" width="800" height="550" style="fill: rgb(0, 0, 0); fill-opacity: 0;"/><defs id="defs-721d58"><g class="clips"><clipPath id="clip721d58xyplot" class="plotclip"><rect width="702" height="390"/></clipPath><clipPath class="axesclip" id="clip721d58x"><rect x="58" y="0" width="702" height="550"/></clipPath><clipPath class="axesclip" id="clip721d58y"><rect x="0" y="100" width="800" height="390"/></clipPath><clipPath class="axesclip" id="clip721d58xy"><rect x="58" y="100" width="702" height="390"/></clipPath></g><g class="gradients"/><g class="patterns"/></defs><g class="bglayer"><rect class="bg" x="58" y="100" width="702" height="390" style="fill: rgb(0, 0, 0); fill-opacity: 0; stroke-width: 0;"/></g><g class="layer-below"><g class="imagelayer"/><g class="shapelayer"/></g><g class="cartesianlayer"><g class="subplot xy"><g class="layer-subplot"><g class="shapelayer"/><g class="imagelayer"/></g><g class="minor-gridlayer"><g class="x"/><g class="y"/></g><g class="gridlayer"><g class="x"/><g class="y"><path class="ygrid crisp" transform="translate(0,463.24)" d="M58,0h702" style="stroke: rgb(235, 240, 248); stroke-opacity: 1; stroke-width: 1px;"/><path class="ygrid crisp" transform="translate(0,414.82)" d="M58,0h702" style="stroke: rgb(235, 240, 248); stroke-opacity: 1; stroke-width: 1px;"/><path class="ygrid crisp" transform="translate(0,366.41)" d="M58,0h702" style="stroke: rgb(235, 240, 248); stroke-opacity: 1; stroke-width: 1px;"/><path class="ygrid crisp" transform="translate(0,318)" d="M58,0h702" style="stroke: rgb(235, 240, 248); stroke-opacity: 1; stroke-width: 1px;"/><path class="ygrid crisp" transform="translate(0,269.58000000000004)" d="M58,0h702" style="stroke: rgb(235, 240, 248); stroke-opacity: 1; stroke-width: 1px;"/><path class="ygrid crisp" transform="translate(0,221.17000000000002)" d="M58,0h702" style="stroke: rgb(235, 240, 248); stroke-opacity: 1; stroke-width: 1px;"/><path class="ygrid crisp" transform="translate(0,172.76)" d="M58,0h702" style="stroke: rgb(235, 240, 248); stroke-opacity: 1; stroke-width: 1px;"/><path class="ygrid crisp" transform="translate(0,124.34)" d="M58,0h702" style="stroke: rgb(235, 240, 248); stroke-opacity: 1; stroke-width: 1px;"/></g></g><g class="zerolinelayer"/><g class="layer-between"><g class="shapelayer"/><g class="imagelayer"/></g><path class="xlines-below"/><path class="ylines-below"/><g class="overlines-below"/><g class="xaxislayer-below"/><g class="yaxislayer-below"/><g class="overaxes-below"/><g class="overplot"><g class="xy" transform="translate(58,100)" clip-path="url(#clip721d58xyplot)"><g class="boxlayer mlayer"><g class="trace boxes" style="opacity: 1;"><path class="box" d="M35.1,153.61H140.4M35.1,183.14H140.4V122.14H35.1ZM87.75,183.14V274.64M87.75,122.14V31.6M61.42,274.64H114.07M61.42,31.6H114.07" style="vector-effect: none; stroke-width: 1.5px; stroke: rgb(106, 27, 154); stroke-opacity: 1; fill: rgb(106, 27, 154); fill-opacity: 0.5;"/><g class="points"><path class="point" transform="translate(87.75,370.5)" d="M2,0A2,2 0 1,1 0,-2A2,2 0 0,1 2,0Z" style="opacity: 0.3; stroke-width: 0px; fill: rgb(106, 27, 154); fill-opacity: 1;"/><path class="point" transform="translate(87.75,352.59)" d="M2,0A2,2 0 1,1 0,-2A2,2 0 0,1 2,0Z" style="opacity: 0.3; stroke-width: 0px; fill: rgb(106, 27, 154); fill-opacity: 1;"/><path class="point" transform="translate(87.75,337.58)" d="M2,0A2,2 0 1,1 0,-2A2,2 0 0,1 2,0Z" style="opacity: 0.3; stroke-width: 0px; fill: rgb(106, 27, 154); fill-opacity: 1;"/><path class="point" transform="translate(87.75,327.41)" d="M2,0A2,2 0 1,1 0,-2A2,2 0 0,1 2,0Z" style="opacity: 0.3; stroke-width: 0px; fill: rgb(106, 27, 154); fill-opacity: 1;"/><path class="point" transform="translate(87.75,319.18)" d="M2,0A2,2 0 1,1 0,-2A2,2 0 0,1 2,0Z" style="opacity: 0.3; stroke-width: 0px; fill: rgb(106, 27, 154); fill-opacity: 1;"/><path class="point" transform="translate(87.75,313.37)" d="M2,0A2,2 0 1,1 0,-2A2,2 0 0,1 2,0Z" style="opacity: 0.3; stroke-width: 0px; fill: rgb(106, 27, 154); fill-opacity: 1;"/><path class="point" transform="translate(87.75,311.44)" d="M2,0A2,2 0 1,1 0,-2A2,2 0 0,1 2,0Z" style="opacity: 0.3; stroke-width: 0px; fill: rgb(106, 27, 154); fill-opacity: 1;"/><path class="point" transform="translate(87.75,308.53)" d="M2,0A2,2 0 1,1 0,-2A2,2 0 0,1 2,0Z" style="opacity: 0.3; stroke-width: 0px; fill: rgb(106, 27, 154); fill-opacity: 1;"/><path class="point" transform="translate(87.75,304.66)" d="M2,0A2,2 0 1,1 0,-2A2,2 0 0,1 2,0Z" style="opacity: 0.3; stroke-width: 0px; fill: rgb(106, 27, 154); fill-opacity: 1;"/><path class="point" transform="translate(87.75,304.17)" d="M2,0A2,2 0 1,1 0,-2A2,2 0 0,1 2,0Z" style="opacity: 0.3; stroke-width: 0px; fill: rgb(106, 27, 154); fill-opacity: 1;"/><path class="point" transform="translate(87.75,302.24)" d="M2,0A2,2 0 1,1 0,-2A2,2 0 0,1 2,0Z" style="opacity: 0.3; stroke-width: 0px; fill: rgb(106, 27, 154); fill-opacity: 1;"/><path class="point" transform="translate(87.75,301.27)" d="M2,0A2,2 0 1,1 0,-2A2,2 0 0,1 2,0Z" style="opacity: 0.3; stroke-width: 0px; fill: rgb(106, 27, 154); fill-opacity: 1;"/><path class="point" transform="translate(87.75,300.78)" d="M2,0A2,2 0 1,1 0,-2A2,2 0 0,1 2,0Z" style="opacity: 0.3; stroke-width: 0px; fill: rgb(106, 27, 154); fill-opacity: 1;"/><path class="point" transform="translate(87.75,300.3)" d="M2,0A2,2 0 1,1 0,-2A2,2 0 0,1 2,0Z" style="opacity: 0.3; stroke-width: 0px; fill: rgb(106, 27, 154); fill-opacity: 1;"/><path class="point" transform="translate(87.75,299.33)" d="M2,0A2,2 0 1,1 0,-2A2,2 0 0,1 2,0Z" style="opacity: 0.3; stroke-width: 0px; fill: rgb(106, 27, 154); fill-opacity: 1;"/><path class="point" transform="translate(87.75,298.85)" d="M2,0A2,2 0 1,1 0,-2A2,2 0 0,1 2,0Z" style="opacity: 0.3; stroke-width: 0px; fill: rgb(106, 27, 154); fill-opacity: 1;"/><path class="point" transform="translate(87.75,292.55)" d="M2,0A2,2 0 1,1 0,-2A2,2 0 0,1 2,0Z" style="opacity: 0.3; stroke-width: 0px; fill: rgb(106, 27, 154); fill-opacity: 1;"/><path class="point" transform="translate(87.75,291.59)" d="M2,0A2,2 0 1,1 0,-2A2,2 0 0,1 2,0Z" style="opacity: 0.3; stroke-width: 0px; fill: rgb(106, 27, 154); fill-opacity: 1;"/><path class="point" transform="translate(87.75,288.2)" d="M2,0A2,2 0 1,1 0,-2A2,2 0 0,1 2,0Z" style="opacity: 0.3; stroke-width: 0px; fill: rgb(106, 27, 154); fill-opacity: 1;"/><path class="point" transform="translate(87.75,287.71)" d="M2,0A2,2 0 1,1 0,-2A2,2 0 0,1 2,0Z" style="opacity: 0.3; stroke-width: 0px; fill: rgb(106, 27, 154); fill-opacity: 1;"/><path class="point" transform="translate(87.75,287.71)" d="M2,0A2,2 0 1,1 0,-2A2,2 0 0,1 2,0Z" style="opacity: 0.3; stroke-width: 0px; fill: rgb(106, 27, 154); fill-opacity: 1;"/><path class="point" transform="translate(87.75,287.23)" d="M2,0A2,2 0 1,1 0,-2A2,2 0 0,1 2,0Z" style="opacity: 0.3; stroke-width: 0px; fill: rgb(106, 27, 154); fill-opacity: 1;"/><path class="point" transform="translate(87.75,285.78)" d="M2,0A2,2 0 1,1 0,-2A2,2 0 0,1 2,0Z" style="opacity: 0.3; stroke-width: 0px; fill: rgb(106, 27, 154); fill-opacity: 1;"/><path class="point" transform="translate(87.75,284.32)" d="M2,0A2,2 0 1,1 0,-2A2,2 0 0,1 2,0Z" style="opacity: 0.3; stroke-width: 0px; fill: rgb(106, 27, 154); fill-opacity: 1;"/><path class="point" transform="translate(87.75,278.51)" d="M2,0A2,2 0 1,1 0,-2A2,2 0 0,1 2,0Z" style="opacity: 0.3; stroke-width: 0px; fill: rgb(106, 27, 154); fill-opacity: 1;"/><path class="point" transform="translate(87.75,278.03)" d="M2,0A2,2 0 1,1 0,-2A2,2 0 0,1 2,0Z" style="opacity: 0.3; stroke-width: 0px; fill: rgb(106, 27, 154); fill-opacity: 1;"/><path class="point" transform="translate(87.75,276.58)" d="M2,0A2,2 0 1,1 0,-2A2,2 0 0,1 2,0Z" style="opacity: 0.3; stroke-width: 0px; fill: rgb(106, 27, 154); fill-opacity: 1;"/><path class="point" transform="translate(87.75,275.61)" d="M2,0A2,2 0 1,1 0,-2A2,2 0 0,1 2,0Z" style="opacity: 0.3; stroke-width: 0px; fill: rgb(106, 27, 154); fill-opacity: 1;"/><path class="point" transform="translate(87.75,30.15)" d="M2,0A2,2 0 1,1 0,-2A2,2 0 0,1 2,0Z" style="opacity: 0.3; stroke-width: 0px; fill: rgb(106, 27, 154); fill-opacity: 1;"/><path class="point" transform="translate(87.75,29.18)" d="M2,0A2,2 0 1,1 0,-2A2,2 0 0,1 2,0Z" style="opacity: 0.3; stroke-width: 0px; fill: rgb(106, 27, 154); fill-opacity: 1;"/><path class="point" transform="translate(87.75,22.4)" d="M2,0A2,2 0 1,1 0,-2A2,2 0 0,1 2,0Z" style="opacity: 0.3; stroke-width: 0px; fill: rgb(106, 27, 154); fill-opacity: 1;"/></g></g><g class="trace boxes" style="opacity: 1;"><path class="box" d="M298.35,114.39H403.65M298.35,141.5H403.65V92.6H298.35ZM351,141.5V212.19M351,92.6V19.5M324.67,212.19H377.33M324.67,19.5H377.33" style="vector-effect: none; stroke-width: 1.5px; stroke: rgb(234, 86, 140); stroke-opacity: 1; fill: rgb(234, 86, 140); fill-opacity: 0.5;"/><g class="points"><path class="point" transform="translate(351,352.59)" d="M2,0A2,2 0 1,1 0,-2A2,2 0 0,1 2,0Z" style="opacity: 0.3; stroke-width: 0px; fill: rgb(234, 86, 140); fill-opacity: 1;"/><path class="point" transform="translate(351,311.92)" d="M2,0A2,2 0 1,1 0,-2A2,2 0 0,1 2,0Z" style="opacity: 0.3; stroke-width: 0px; fill: rgb(234, 86, 140); fill-opacity: 1;"/><path class="point" transform="translate(351,297.88)" d="M2,0A2,2 0 1,1 0,-2A2,2 0 0,1 2,0Z" style="opacity: 0.3; stroke-width: 0px; fill: rgb(234, 86, 140); fill-opacity: 1;"/><path class="point" transform="translate(351,278.51)" d="M2,0A2,2 0 1,1 0,-2A2,2 0 0,1 2,0Z" style="opacity: 0.3; stroke-width: 0px; fill: rgb(234, 86, 140); fill-opacity: 1;"/><path class="point" transform="translate(351,275.61)" d="M2,0A2,2 0 1,1 0,-2A2,2 0 0,1 2,0Z" style="opacity: 0.3; stroke-width: 0px; fill: rgb(234, 86, 140); fill-opacity: 1;"/><path class="point" transform="translate(351,274.64)" d="M2,0A2,2 0 1,1 0,-2A2,2 0 0,1 2,0Z" style="opacity: 0.3; stroke-width: 0px; fill: rgb(234, 86, 140); fill-opacity: 1;"/><path class="point" transform="translate(351,247.53)" d="M2,0A2,2 0 1,1 0,-2A2,2 0 0,1 2,0Z" style="opacity: 0.3; stroke-width: 0px; fill: rgb(234, 86, 140); fill-opacity: 1;"/><path class="point" transform="translate(351,242.2)" d="M2,0A2,2 0 1,1 0,-2A2,2 0 0,1 2,0Z" style="opacity: 0.3; stroke-width: 0px; fill: rgb(234, 86, 140); fill-opacity: 1;"/><path class="point" transform="translate(351,234.46)" d="M2,0A2,2 0 1,1 0,-2A2,2 0 0,1 2,0Z" style="opacity: 0.3; stroke-width: 0px; fill: rgb(234, 86, 140); fill-opacity: 1;"/><path class="point" transform="translate(351,228.65)" d="M2,0A2,2 0 1,1 0,-2A2,2 0 0,1 2,0Z" style="opacity: 0.3; stroke-width: 0px; fill: rgb(234, 86, 140); fill-opacity: 1;"/><path class="point" transform="translate(351,221.87)" d="M2,0A2,2 0 1,1 0,-2A2,2 0 0,1 2,0Z" style="opacity: 0.3; stroke-width: 0px; fill: rgb(234, 86, 140); fill-opacity: 1;"/><path class="point" transform="translate(351,221.39)" d="M2,0A2,2 0 1,1 0,-2A2,2 0 0,1 2,0Z" style="opacity: 0.3; stroke-width: 0px; fill: rgb(234, 86, 140); fill-opacity: 1;"/><path class="point" transform="translate(351,220.42)" d="M2,0A2,2 0 1,1 0,-2A2,2 0 0,1 2,0Z" style="opacity: 0.3; stroke-width: 0px; fill: rgb(234, 86, 140); fill-opacity: 1;"/><path class="point" transform="translate(351,217.03)" d="M2,0A2,2 0 1,1 0,-2A2,2 0 0,1 2,0Z" style="opacity: 0.3; stroke-width: 0px; fill: rgb(234, 86, 140); fill-opacity: 1;"/><path class="point" transform="translate(351,215.09)" d="M2,0A2,2 0 1,1 0,-2A2,2 0 0,1 2,0Z" style="opacity: 0.3; stroke-width: 0px; fill: rgb(234, 86, 140); fill-opacity: 1;"/></g></g><g class="trace boxes" style="opacity: 1;"><path class="box" d="M561.6,111.97H666.9M561.6,139.57H666.9V90.18H561.6ZM614.25,139.57V212.67M614.25,90.18V20.95M587.92,212.67H640.57M587.92,20.95H640.57" style="vector-effect: none; stroke-width: 1.5px; stroke: rgb(46, 134, 193); stroke-opacity: 1; fill: rgb(46, 134, 193); fill-opacity: 0.5;"/><g class="points"><path class="point" transform="translate(614.25,319.67)" d="M2,0A2,2 0 1,1 0,-2A2,2 0 0,1 2,0Z" style="opacity: 0.3; stroke-width: 0px; fill: rgb(46, 134, 193); fill-opacity: 1;"/><path class="point" transform="translate(614.25,238.81)" d="M2,0A2,2 0 1,1 0,-2A2,2 0 0,1 2,0Z" style="opacity: 0.3; stroke-width: 0px; fill: rgb(46, 134, 193); fill-opacity: 1;"/><path class="point" transform="translate(614.25,238.33)" d="M2,0A2,2 0 1,1 0,-2A2,2 0 0,1 2,0Z" style="opacity: 0.3; stroke-width: 0px; fill: rgb(46, 134, 193); fill-opacity: 1;"/><path class="point" transform="translate(614.25,235.91)" d="M2,0A2,2 0 1,1 0,-2A2,2 0 0,1 2,0Z" style="opacity: 0.3; stroke-width: 0px; fill: rgb(46, 134, 193); fill-opacity: 1;"/><path class="point" transform="translate(614.25,215.58)" d="M2,0A2,2 0 1,1 0,-2A2,2 0 0,1 2,0Z" style="opacity: 0.3; stroke-width: 0px; fill: rgb(46, 134, 193); fill-opacity: 1;"/><path class="point" transform="translate(614.25,214.12)" d="M2,0A2,2 0 1,1 0,-2A2,2 0 0,1 2,0Z" style="opacity: 0.3; stroke-width: 0px; fill: rgb(46, 134, 193); fill-opacity: 1;"/></g></g></g></g></g><g class="zerolinelayer-above"/><path class="xlines-above crisp" d="M57,490.5H760" style="fill: none; stroke-width: 1px; stroke: rgb(0, 0, 0); stroke-opacity: 1;"/><path class="ylines-above crisp" d="M57.5,100V490" style="fill: none; stroke-width: 1px; stroke: rgb(0, 0, 0); stroke-opacity: 1;"/><g class="overlines-above"/><g class="xaxislayer-above"><g class="xtick"><text text-anchor="middle" x="0" y="506.6" transform="translate(145.75,0)" style="font-family: Tahoma; font-size: 13px; fill: rgb(0, 0, 0); fill-opacity: 1; white-space: pre;">1-2 producers</text></g><g class="xtick"><text text-anchor="middle" x="0" y="506.6" transform="translate(409,0)" style="font-family: Tahoma; font-size: 13px; fill: rgb(0, 0, 0); fill-opacity: 1; white-space: pre;">3-5 producers</text></g><g class="xtick"><text text-anchor="middle" x="0" y="506.6" transform="translate(672.25,0)" style="font-family: Tahoma; font-size: 13px; fill: rgb(0, 0, 0); fill-opacity: 1; white-space: pre;">6+ producers</text></g></g><g class="yaxislayer-above"><g class="ytick"><text text-anchor="end" x="54.4" y="4.55" transform="translate(0,463.24)" style="font-family: Tahoma; font-size: 13px; fill: rgb(0, 0, 0); fill-opacity: 1; white-space: pre;">2  </text></g><g class="ytick"><text text-anchor="end" x="54.4" y="4.55" style="font-family: Tahoma; font-size: 13px; fill: rgb(0, 0, 0); fill-opacity: 1; white-space: pre;" transform="translate(0,414.82)">3  </text></g><g class="ytick"><text text-anchor="end" x="54.4" y="4.55" style="font-family: Tahoma; font-size: 13px; fill: rgb(0, 0, 0); fill-opacity: 1; white-space: pre;" transform="translate(0,366.41)">4  </text></g><g class="ytick"><text text-anchor="end" x="54.4" y="4.55" style="font-family: Tahoma; font-size: 13px; fill: rgb(0, 0, 0); fill-opacity: 1; white-space: pre;" transform="translate(0,318)">5  </text></g><g class="ytick"><text text-anchor="end" x="54.4" y="4.55" style="font-family: Tahoma; font-size: 13px; fill: rgb(0, 0, 0); fill-opacity: 1; white-space: pre;" transform="translate(0,269.58000000000004)">6  </text></g><g class="ytick"><text text-anchor="end" x="54.4" y="4.55" style="font-family: Tahoma; font-size: 13px; fill: rgb(0, 0, 0); fill-opacity: 1; white-space: pre;" transform="translate(0,221.17000000000002)">7  </text></g><g class="ytick"><text text-anchor="end" x="54.4" y="4.55" style="font-family: Tahoma; font-size: 13px; fill: rgb(0, 0, 0); fill-opacity: 1; white-space: pre;" transform="translate(0,172.76)">8  </text></g><g class="ytick"><text text-anchor="end" x="54.4" y="4.55" style="font-family: Tahoma; font-size: 13px; fill: rgb(0, 0, 0); fill-opacity: 1; white-space: pre;" transform="translate(0,124.34)">9  </text></g></g><g class="overaxes-above"/></g></g><g class="polarlayer"/><g class="smithlayer"/><g class="ternarylayer"/><g class="geolayer"/><g class="funnelarealayer"/><g class="pielayer"/><g class="iciclelayer"/><g class="treemaplayer"/><g class="sunburstlayer"/><g class="glimages"/><defs id="topdefs-721d58"><g class="clips"/></defs><g class="layer-above"><g class="imagelayer"/><g class="shapelayer"/></g><g class="infolayer"><g class="g-gtitle"><text class="gtitle" x="16" y="27.5" text-anchor="start" dy="0.7em" style="opacity: 1; font-family: Tahoma; font-size: 18px; fill: rgb(0, 0, 0); fill-opacity: 1; white-space: pre;"><tspan class="line" dy="0em" x="16" y="27.5"><tspan style="font-weight:bold">Large Collaboration Teams Correlate with Higher Scores</tspan></tspan><tspan class="line" dy="1.3em" x="16" y="27.5"><tspan style=" fill:#555555; font-size:14px">(Avg Score Increases by +0.81 points when comparing 3-5 Producers vs Small Teams)</tspan></tspan></text></g><g class="g-xtitle"><text class="xtitle" x="409" y="535.299609375" text-anchor="middle" style="opacity: 1; font-family: Tahoma; font-size: 16px; fill: rgb(0, 0, 0); fill-opacity: 1; white-space: pre;">Producer Team Size</text></g><g class="g-ytitle"><text class="ytitle" transform="rotate(-90,18.066015625,295)" x="18.066015625" y="295" text-anchor="middle" style="opacity: 1; font-family: Tahoma; font-size: 16px; fill: rgb(0, 0, 0); fill-opacity: 1; white-space: pre;">Anime Score</text></g></g></svg>