<svg class="main-svg" xmlns="http://www.w3.org/2000/svg" xmlns:xlink="http://www.w3.org/1999/xlink" width="900" height="500" style="" viewBox="0 0 900 500"><rect x="0" y="0" width="900" height="500" style="fill: rgb(0, 0, 0); fill-opacity: 0;"/><defs id="defs-e924b4"><g class="clips"><clipPath id="clipe924b4xyplot" class="plotclip"><rect width="805" height="340"/></clipPath><clipPath class="axesclip" id="clipe924b4x"><rect x="55" y="0" width="805" height="500"/></clipPath><clipPath class="axesclip" id="clipe924b4y"><rect x="0" y="100" width="900" height="340"/></clipPath><clipPath class="axesclip" id="clipe924b4xy"><rect x="55" y="100" width="805" height="340"/></clipPath></g><g class="gradients"/><g class="patterns"/></defs><g class="bglayer"><rect class="bg" x="55" y="100" width="805" height="340" style="fill: rgb(0, 0, 0); fill-opacity: 0; stroke-width: 0;"/></g><g class="layer-below"><g class="imagelayer"/><g class="shapelayer"/></g><g class="cartesianlayer"><g class="subplot xy"><g class="layer-subplot"><g class="shapelayer"/><g class="imagelayer"/></g><g class="minor-gridlayer"><g class="x"/><g class="y"/></g><g class="gridlayer"><g class="x"/><g class="y"><path class="ygrid crisp" transform="translate(0,372)" d="M55,0h805" style="stroke: rgb(235, 240, 248); stroke-opacity: 1; stroke-width: 1px;"/><path class="ygrid crisp" transform="translate(0,304)" d="M55,0h805" style="stroke: rgb(235, 240, 248); stroke-opacity: 1; stroke-width: 1px;"/><path class="ygrid crisp" transform="translate(0,236)" d="M55,0h805" style="stroke: rgb(235, 240, 248); stroke-opacity: 1; stroke-width: 1px;"/><path class="ygrid crisp" transform="translate(0,168)" d="M55,0h805" style="stroke: rgb(235, 240, 248); stroke-opacity: 1; stroke-width: 1px;"/></g></g><g class="zerolinelayer"><path class="yzl zl crisp" transform="translate(0,440)" d="M55,0h805" style="stroke: rgb(235, 240, 248); stroke-opacity: 1; stroke-width: 2px;"/></g><g class="layer-between"><g class="shapelayer"/><g class="imagelayer"/></g><path class="xlines-below"/><path class="ylines-below"/><g class="overlines-below"/><g class="xaxislayer-below"/><g class="yaxislayer-below"/><g class="overaxes-below"/><g class="overplot"><g class="xy" transform="translate(55,100)" clip-path="url(#clipe924b4xyplot)"><g class="boxlayer mlayer"><g class="trace boxes" style="opacity: 1;"><path class="box" d="M41.06,119.34H119.95M41.06,145.1H119.95V92.82H41.06ZM80.5,145.1V170M80.5,92.82V58.48M60.78,170H100.22M60.78,58.48H100.22" style="vector-effect: none; stroke-width: 2px; stroke: rgb(211, 211, 211); stroke-opacity: 1; fill: rgb(211, 211, 211); fill-opacity: 0.5;"/><g class="points"/><path class="mean" d="M41.06,116.77H119.95" style="fill: none; vector-effect: non-scaling-stroke; stroke-width: 2; stroke-dasharray: 4px, 2px; stroke: rgb(211, 211, 211); stroke-opacity: 1;"/></g><g class="trace boxes" style="opacity: 1;"><path class="box" d="M202.06,104.55H280.95M202.06,121.38H280.95V87.72H202.06ZM241.5,121.38V168.3M241.5,87.72V38.08M221.78,168.3H261.22M221.78,38.08H261.22" style="vector-effect: none; stroke-width: 2px; stroke: rgb(211, 211, 211); stroke-opacity: 1; fill: rgb(211, 211, 211); fill-opacity: 0.5;"/><g class="points"><path class="point" transform="translate(241.5,241.4)" d="M3,0A3,3 0 1,1 0,-3A3,3 0 0,1 3,0Z" style="opacity: 1; stroke-width: 0px; fill: rgb(211, 211, 211); fill-opacity: 1;"/><path class="point" transform="translate(241.5,211.14)" d="M3,0A3,3 0 1,1 0,-3A3,3 0 0,1 3,0Z" style="opacity: 1; stroke-width: 0px; fill: rgb(211, 211, 211); fill-opacity: 1;"/><path class="point" transform="translate(241.5,210.46)" d="M3,0A3,3 0 1,1 0,-3A3,3 0 0,1 3,0Z" style="opacity: 1; stroke-width: 0px; fill: rgb(211, 211, 211); fill-opacity: 1;"/><path class="point" transform="translate(241.5,187.34)" d="M3,0A3,3 0 1,1 0,-3A3,3 0 0,1 3,0Z" style="opacity: 1; stroke-width: 0px; fill: rgb(211, 211, 211); fill-opacity: 1;"/><path class="point" transform="translate(241.5,184.28)" d="M3,0A3,3 0 1,1 0,-3A3,3 0 0,1 3,0Z" style="opacity: 1; stroke-width: 0px; fill: rgb(211, 211, 211); fill-opacity: 1;"/><path class="point" transform="translate(241.5,183.6)" d="M3,0A3,3 0 1,1 0,-3A3,3 0 0,1 3,0Z" style="opacity: 1; stroke-width: 0px; fill: rgb(211, 211, 211); fill-opacity: 1;"/><path class="point" transform="translate(241.5,183.6)" d="M3,0A3,3 0 1,1 0,-3A3,3 0 0,1 3,0Z" style="opacity: 1; stroke-width: 0px; fill: rgb(211, 211, 211); fill-opacity: 1;"/><path class="point" transform="translate(241.5,180.88)" d="M3,0A3,3 0 1,1 0,-3A3,3 0 0,1 3,0Z" style="opacity: 1; stroke-width: 0px; fill: rgb(211, 211, 211); fill-opacity: 1;"/><path class="point" transform="translate(241.5,179.52)" d="M3,0A3,3 0 1,1 0,-3A3,3 0 0,1 3,0Z" style="opacity: 1; stroke-width: 0px; fill: rgb(211, 211, 211); fill-opacity: 1;"/><path class="point" transform="translate(241.5,176.12)" d="M3,0A3,3 0 1,1 0,-3A3,3 0 0,1 3,0Z" style="opacity: 1; stroke-width: 0px; fill: rgb(211, 211, 211); fill-opacity: 1;"/><path class="point" transform="translate(241.5,174.42)" d="M3,0A3,3 0 1,1 0,-3A3,3 0 0,1 3,0Z" style="opacity: 1; stroke-width: 0px; fill: rgb(211, 211, 211); fill-opacity: 1;"/><path class="point" transform="translate(241.5,173.74)" d="M3,0A3,3 0 1,1 0,-3A3,3 0 0,1 3,0Z" style="opacity: 1; stroke-width: 0px; fill: rgb(211, 211, 211); fill-opacity: 1;"/><path class="point" transform="translate(241.5,34.68)" d="M3,0A3,3 0 1,1 0,-3A3,3 0 0,1 3,0Z" style="opacity: 1; stroke-width: 0px; fill: rgb(211, 211, 211); fill-opacity: 1;"/><path class="point" transform="translate(241.5,34.68)" d="M3,0A3,3 0 1,1 0,-3A3,3 0 0,1 3,0Z" style="opacity: 1; stroke-width: 0px; fill: rgb(211, 211, 211); fill-opacity: 1;"/><path class="point" transform="translate(241.5,32.3)" d="M3,0A3,3 0 1,1 0,-3A3,3 0 0,1 3,0Z" style="opacity: 1; stroke-width: 0px; fill: rgb(211, 211, 211); fill-opacity: 1;"/></g><path class="mean" d="M202.06,104.99H280.95" style="fill: none; vector-effect: non-scaling-stroke; stroke-width: 2; stroke-dasharray: 4px, 2px; stroke: rgb(211, 211, 211); stroke-opacity: 1;"/></g><g class="trace boxes" style="opacity: 1;"><path class="box" d="M363.06,96.56H441.95M363.06,116.28H441.95V80.24H363.06ZM402.5,116.28V167.96M402.5,80.24V31.62M382.78,167.96H422.22M382.78,31.62H422.22" style="vector-effect: none; stroke-width: 2px; stroke: rgb(106, 27, 154); stroke-opacity: 1; fill: rgb(106, 27, 154); fill-opacity: 0.5;"/><g class="points"><path class="point" transform="translate(402.5,227.8)" d="M3,0A3,3 0 1,1 0,-3A3,3 0 0,1 3,0Z" style="opacity: 1; stroke-width: 0px; fill: rgb(106, 27, 154); fill-opacity: 1;"/><path class="point" transform="translate(402.5,181.56)" d="M3,0A3,3 0 1,1 0,-3A3,3 0 0,1 3,0Z" style="opacity: 1; stroke-width: 0px; fill: rgb(106, 27, 154); fill-opacity: 1;"/><path class="point" transform="translate(402.5,179.52)" d="M3,0A3,3 0 1,1 0,-3A3,3 0 0,1 3,0Z" style="opacity: 1; stroke-width: 0px; fill: rgb(106, 27, 154); fill-opacity: 1;"/><path class="point" transform="translate(402.5,172.38)" d="M3,0A3,3 0 1,1 0,-3A3,3 0 0,1 3,0Z" style="opacity: 1; stroke-width: 0px; fill: rgb(106, 27, 154); fill-opacity: 1;"/></g><path class="mean" d="M363.06,97.94H441.95" style="fill: none; vector-effect: non-scaling-stroke; stroke-width: 2; stroke-dasharray: 4px, 2px; stroke: rgb(106, 27, 154); stroke-opacity: 1;"/></g><g class="trace boxes" style="opacity: 1;"><path class="box" d="M524.06,103.7H602.95M524.06,122.4H602.95V90.44H524.06ZM563.5,122.4V158.44M563.5,90.44V42.5M543.78,158.44H583.22M543.78,42.5H583.22" style="vector-effect: none; stroke-width: 2px; stroke: rgb(211, 211, 211); stroke-opacity: 1; fill: rgb(211, 211, 211); fill-opacity: 0.5;"/><g class="points"><path class="point" transform="translate(563.5,41.82)" d="M3,0A3,3 0 1,1 0,-3A3,3 0 0,1 3,0Z" style="opacity: 1; stroke-width: 0px; fill: rgb(211, 211, 211); fill-opacity: 1;"/><path class="point" transform="translate(563.5,40.46)" d="M3,0A3,3 0 1,1 0,-3A3,3 0 0,1 3,0Z" style="opacity: 1; stroke-width: 0px; fill: rgb(211, 211, 211); fill-opacity: 1;"/></g><path class="mean" d="M524.06,105.12H602.95" style="fill: none; vector-effect: non-scaling-stroke; stroke-width: 2; stroke-dasharray: 4px, 2px; stroke: rgb(211, 211, 211); stroke-opacity: 1;"/></g><g class="trace boxes" style="opacity: 1;"><path class="box" d="M685.06,109.14H763.95M685.06,123.42H763.95V93.84H685.06ZM724.5,123.42V159.12M724.5,93.84V51M704.78,159.12H744.22M704.78,51H744.22" style="vector-effect: none; stroke-width: 2px; stroke: rgb(211, 211, 211); stroke-opacity: 1; fill: rgb(211, 211, 211); fill-opacity: 0.5;"/><g class="points"><path class="point" transform="translate(724.5,42.16)" d="M3,0A3,3 0 1,1 0,-3A3,3 0 0,1 3,0Z" style="opacity: 1; stroke-width: 0px; fill: rgb(211, 211, 211); fill-opacity: 1;"/><path class="point" transform="translate(724.5,38.42)" d="M3,0A3,3 0 1,1 0,-3A3,3 0 0,1 3,0Z" style="opacity: 1; stroke-width: 0px; fill: rgb(211, 211, 211); fill-opacity: 1;"/><path class="point" transform="translate(724.5,32.64)" d="M3,0A3,3 0 1,1 0,-3A3,3 0 0,1 3,0Z" style="opacity: 1; stroke-width: 0px; fill: rgb(211, 211, 211); fill-opacity: 1;"/><path class="point" transform="translate(724.5,31.96)" d="M3,0A3,3 0 1,1 0,-3A3,3 0 0,1 3,0Z" style="opacity: 1; stroke-width: 0px; fill: rgb(211, 211, 211); fill-opacity: 1;"/><path class="point" transform="translate(724.5,30.6)" d="M3,0A3,3 0 1,1 0,-3A3,3 0 0,1 3,0Z" style="opacity: 1; stroke-width: 0px; fill: rgb(211, 211, 211); fill-opacity: 1;"/></g><path class="mean" d="M685.06,108.07H763.95" style="fill: none; vector-effect: non-scaling-stroke; stroke-width: 2; stroke-dasharray: 4px, 2px; stroke: rgb(211, 211, 211); stroke-opacity: 1;"/></g></g></g></g><g class="zerolinelayer-above"/><path class="xlines-above crisp" d="M0,0" style="fill: none;"/><path class="ylines-above crisp" d="M54.5,100V440" style="fill: none; stroke-width: 1px; stroke: rgb(204, 204, 204); stroke-opacity: 1;"/><g class="overlines-above"/><g class="xaxislayer-above"><g class="xtick"><text text-anchor="middle" x="0" y="454" transform="translate(135.5,0)" style="font-family: Tahoma; font-size: 13px; fill: rgb(42, 63, 95); fill-opacity: 1; white-space: pre;">1–5</text></g><g class="xtick"><text text-anchor="middle" x="0" y="454" transform="translate(296.5,0)" style="font-family: Tahoma; font-size: 13px; fill: rgb(42, 63, 95); fill-opacity: 1; white-space: pre;">6–12</text></g><g class="xtick"><text text-anchor="middle" x="0" y="454" transform="translate(457.5,0)" style="font-family: Tahoma; font-size: 13px; fill: rgb(42, 63, 95); fill-opacity: 1; white-space: pre;">13–25</text></g><g class="xtick"><text text-anchor="middle" x="0" y="454" transform="translate(618.5,0)" style="font-family: Tahoma; font-size: 13px; fill: rgb(42, 63, 95); fill-opacity: 1; white-space: pre;">26–50</text></g><g class="xtick"><text text-anchor="middle" x="0" y="454" transform="translate(779.5,0)" style="font-family: Tahoma; font-size: 13px; fill: rgb(42, 63, 95); fill-opacity: 1; white-space: pre;">> 50</text></g></g><g class="yaxislayer-above"><path class="ytick ticks crisp" d="M55,0h8" transform="translate(0,372)" style="stroke: rgb(204, 204, 204); stroke-opacity: 1; stroke-width: 0.5px;"/><path class="ytick ticks crisp" d="M55,0h8" transform="translate(0,304)" style="stroke: rgb(204, 204, 204); stroke-opacity: 1; stroke-width: 0.5px;"/><path class="ytick ticks crisp" d="M55,0h8" transform="translate(0,236)" style="stroke: rgb(204, 204, 204); stroke-opacity: 1; stroke-width: 0.5px;"/><path class="ytick ticks crisp" d="M55,0h8" transform="translate(0,168)" style="stroke: rgb(204, 204, 204); stroke-opacity: 1; stroke-width: 0.5px;"/><g class="ytick"><text text-anchor="end" x="51.4" y="4.55" transform="translate(0,440)" style="font-family: Tahoma; font-size: 13px; fill: rgb(42, 63, 95); fill-opacity: 1; white-space: pre;">0</text></g><g class="ytick"><text text-anchor="end" x="51.4" y="4.55" style="font-family: Tahoma; font-size: 13px; fill: rgb(42, 63, 95); fill-opacity: 1; white-space: pre;" transform="translate(0,372)">2</text></g><g class="ytick"><text text-anchor="end" x="51.4" y="4.55" style="font-family: Tahoma; font-size: 13px; fill: rgb(42, 63, 95); fill-opacity: 1; white-space: pre;" transform="translate(0,304)">4</text></g><g class="ytick"><text text-anchor="end" x="51.4" y="4.55" style="font-family: Tahoma; font-size: 13px; fill: rgb(42, 63, 95); fill-opacity: 1; white-space: pre;" transform="translate(0,236)">6</text></g><g class="ytick"><text text-anchor="end" x="51.4" y="4.55" style="font-family: Tahoma; font-size: 13px; fill: rgb(42, 63, 95); fill-opacity: 1; white-space: pre;" transform="translate(0,168)">8</text></g><g class="ytick"><text text-anchor="end" x="51.4" y="4.55" style="font-family: Tahoma; font-size: 13px; fill: rgb(42, 63, 95); fill-opacity: 1; white-space: pre;" transform="translate(0,100)">10</text></g></g><g class="overaxes-above"/></g></g><g class="polarlayer"/><g class="smithlayer"/><g class="ternarylayer"/><g class="geolayer"/><g class="funnelarealayer"/><g class="pielayer"/><g class="iciclelayer"/><g class="treemaplayer"/><g class="sunburstlayer"/><g class="glimages"/><defs id="topdefs-e924b4"><g class="clips"/></defs><g class="layer-above"><g class="imagelayer"/><g class="shapelayer"/></g><g class="infolayer"><g class="g-gtitle"><text class="gtitle" x="18" y="40" text-anchor="start" dy="0.7em" style="opacity: 1; font-family: Tahoma; font-size: 18px; fill: rgb(42, 63, 95); fill-opacity: 1; white-space: pre;"><tspan class="line" dy="0em" x="18" y="40"><tspan style="font-weight:bold">13–25 Episode TV Series Deliver the Strongest Overall Performance</tspan></tspan><tspan class="line" dy="1.3em" x="18" y="40"><tspan style=" fill:#555555; font-size:14px">(Boxplot comparison of Anime TV series score across different episode ranges)</tspan></tspan></text></g><g class="g-xtitle"><text class="xtitle" x="457.5" y="481.3" text-anchor="middle" style="opacity: 1; font-family: Tahoma; font-size: 14px; fill: rgb(42, 63, 95); fill-opacity: 1; white-space: pre;">Episode Range</text></g><g class="g-ytitle"/></g></svg>