<svg class="main-svg" xmlns="http://www.w3.org/2000/svg" xmlns:xlink="http://www.w3.org/1999/xlink" width="700" height="500" style="" viewBox="0 0 700 500"><rect x="0" y="0" width="700" height="500" style="fill: rgb(0, 0, 0); fill-opacity: 0;"/><defs id="defs-040787"><g class="clips"><clipPath id="clip040787xyplot" class="plotclip"><rect width="598" height="340"/></clipPath><clipPath class="axesclip" id="clip040787x"><rect x="62" y="0" width="598" height="500"/></clipPath><clipPath class="axesclip" id="clip040787y"><rect x="0" y="100" width="700" height="340"/></clipPath><clipPath class="axesclip" id="clip040787xy"><rect x="62" y="100" width="598" height="340"/></clipPath></g><g class="gradients"/><g class="patterns"/></defs><g class="bglayer"><rect class="bg" x="62" y="100" width="598" height="340" style="fill: rgb(0, 0, 0); fill-opacity: 0; stroke-width: 0;"/></g><g class="layer-below"><g class="imagelayer"/><g class="shapelayer"/></g><g class="cartesianlayer"><g class="subplot xy"><g class="layer-subplot"><g class="shapelayer"/><g class="imagelayer"/></g><g class="minor-gridlayer"><g class="x"/><g class="y"/></g><g class="gridlayer"><g class="x"/><g class="y"/></g><g class="zerolinelayer"><path class="yzl zl crisp" transform="translate(0,440)" d="M62,0h598" style="stroke: rgb(235, 240, 248); stroke-opacity: 1; stroke-width: 2px;"/></g><g class="layer-between"><g class="shapelayer"/><g class="imagelayer"/></g><path class="xlines-below"/><path class="ylines-below"/><g class="overlines-below"/><g class="xaxislayer-below"/><g class="yaxislayer-below"/><g class="overaxes-below"/><g class="overplot"><g class="xy" transform="translate(62,100)" clip-path="url(#clip040787xyplot)"><g class="scatterlayer mlayer"><g class="trace scatter tracee2eec7" style="stroke-miterlimit: 2; opacity: 1;"><g class="fills"/><g class="errorbars"/><g class="lines"><path class="js-line" d="M34.27,103.39L39.27,101.21L69.24,106.85L74.23,103.35L79.23,111.99L84.22,120.53L89.22,112.71L94.21,104.95L99.21,108.93L104.2,120.38L109.2,120.99L114.19,114.51L119.19,126.46L129.18,122.54L134.17,111.36L139.17,109.33L144.16,114.51L149.16,107.45L154.15,106.31L159.15,126.69L164.14,107.15L169.13,119.93L174.13,109.55L184.12,97.98L189.11,106.7L194.11,119.02L199.1,112.03L209.09,115.19L219.08,114.96L229.07,94.07L234.07,97.04L239.06,101.44L244.06,92.79L249.05,107.82L254.05,96.19L259.04,107.15L264.04,93.8L269.03,100.19L274.03,91.77L279.02,87.61L284.02,86.05L289.01,81.06L294.01,61.86L299,82.48L303.99,89.43L308.99,74.32L313.98,62.73L318.98,70.49L323.97,80.4L333.96,58.94L338.96,48.59L343.95,62.39L348.95,64.63L353.94,52.35L358.94,61.09L363.93,60.72L368.93,67.25L373.92,72L378.92,64.93L383.91,68.93L388.91,58.98L393.9,64.09L398.9,71L408.89,61.76L413.88,54.37L418.88,58.83L423.87,48.02L428.87,56.68L433.86,56.59L438.85,55.33L443.85,56.22L448.84,59.27L453.84,64.88L458.83,59.77L463.83,58.84L473.82,50.46L478.81,48.46L483.81,43.16L488.8,43.46L493.8,47.32L498.79,50.09L508.78,51.28L513.78,51.05L518.77,51.24L523.77,49.68L533.76,51.94L538.75,48.6L543.75,45.62L548.74,43.95L553.74,39.11L558.73,37.33L563.72,30.91" style="vector-effect: none; fill: none; stroke: rgb(234, 86, 140); stroke-opacity: 1; stroke-width: 3px; opacity: 1;"/></g><g class="points"><path class="point" transform="translate(34.27,103.39)" d="M3.5,0A3.5,3.5 0 1,1 0,-3.5A3.5,3.5 0 0,1 3.5,0Z" style="opacity: 1; stroke-width: 0px; fill: rgb(234, 86, 140); fill-opacity: 1;"/><path class="point" transform="translate(39.27,101.21)" d="M3.5,0A3.5,3.5 0 1,1 0,-3.5A3.5,3.5 0 0,1 3.5,0Z" style="opacity: 1; stroke-width: 0px; fill: rgb(234, 86, 140); fill-opacity: 1;"/><path class="point" transform="translate(69.24,106.85)" d="M3.5,0A3.5,3.5 0 1,1 0,-3.5A3.5,3.5 0 0,1 3.5,0Z" style="opacity: 1; stroke-width: 0px; fill: rgb(234, 86, 140); fill-opacity: 1;"/><path class="point" transform="translate(74.23,103.35)" d="M3.5,0A3.5,3.5 0 1,1 0,-3.5A3.5,3.5 0 0,1 3.5,0Z" style="opacity: 1; stroke-width: 0px; fill: rgb(234, 86, 140); fill-opacity: 1;"/><path class="point" transform="translate(79.23,111.99)" d="M3.5,0A3.5,3.5 0 1,1 0,-3.5A3.5,3.5 0 0,1 3.5,0Z" style="opacity: 1; stroke-width: 0px; fill: rgb(234, 86, 140); fill-opacity: 1;"/><path class="point" transform="translate(84.22,120.53)" d="M3.5,0A3.5,3.5 0 1,1 0,-3.5A3.5,3.5 0 0,1 3.5,0Z" style="opacity: 1; stroke-width: 0px; fill: rgb(234, 86, 140); fill-opacity: 1;"/><path class="point" transform="translate(89.22,112.71)" d="M3.5,0A3.5,3.5 0 1,1 0,-3.5A3.5,3.5 0 0,1 3.5,0Z" style="opacity: 1; stroke-width: 0px; fill: rgb(234, 86, 140); fill-opacity: 1;"/><path class="point" transform="translate(94.21,104.95)" d="M3.5,0A3.5,3.5 0 1,1 0,-3.5A3.5,3.5 0 0,1 3.5,0Z" style="opacity: 1; stroke-width: 0px; fill: rgb(234, 86, 140); fill-opacity: 1;"/><path class="point" transform="translate(99.21,108.93)" d="M3.5,0A3.5,3.5 0 1,1 0,-3.5A3.5,3.5 0 0,1 3.5,0Z" style="opacity: 1; stroke-width: 0px; fill: rgb(234, 86, 140); fill-opacity: 1;"/><path class="point" transform="translate(104.2,120.38)" d="M3.5,0A3.5,3.5 0 1,1 0,-3.5A3.5,3.5 0 0,1 3.5,0Z" style="opacity: 1; stroke-width: 0px; fill: rgb(234, 86, 140); fill-opacity: 1;"/><path class="point" transform="translate(109.2,120.99)" d="M3.5,0A3.5,3.5 0 1,1 0,-3.5A3.5,3.5 0 0,1 3.5,0Z" style="opacity: 1; stroke-width: 0px; fill: rgb(234, 86, 140); fill-opacity: 1;"/><path class="point" transform="translate(114.19,114.51)" d="M3.5,0A3.5,3.5 0 1,1 0,-3.5A3.5,3.5 0 0,1 3.5,0Z" style="opacity: 1; stroke-width: 0px; fill: rgb(234, 86, 140); fill-opacity: 1;"/><path class="point" transform="translate(119.19,126.46)" d="M3.5,0A3.5,3.5 0 1,1 0,-3.5A3.5,3.5 0 0,1 3.5,0Z" style="opacity: 1; stroke-width: 0px; fill: rgb(234, 86, 140); fill-opacity: 1;"/><path class="point" transform="translate(124.18,124.82)" d="M3.5,0A3.5,3.5 0 1,1 0,-3.5A3.5,3.5 0 0,1 3.5,0Z" style="opacity: 1; stroke-width: 0px; fill: rgb(234, 86, 140); fill-opacity: 1;"/><path class="point" transform="translate(129.18,122.54)" d="M3.5,0A3.5,3.5 0 1,1 0,-3.5A3.5,3.5 0 0,1 3.5,0Z" style="opacity: 1; stroke-width: 0px; fill: rgb(234, 86, 140); fill-opacity: 1;"/><path class="point" transform="translate(134.17,111.36)" d="M3.5,0A3.5,3.5 0 1,1 0,-3.5A3.5,3.5 0 0,1 3.5,0Z" style="opacity: 1; stroke-width: 0px; fill: rgb(234, 86, 140); fill-opacity: 1;"/><path class="point" transform="translate(139.17,109.33)" d="M3.5,0A3.5,3.5 0 1,1 0,-3.5A3.5,3.5 0 0,1 3.5,0Z" style="opacity: 1; stroke-width: 0px; fill: rgb(234, 86, 140); fill-opacity: 1;"/><path class="point" transform="translate(144.16,114.51)" d="M3.5,0A3.5,3.5 0 1,1 0,-3.5A3.5,3.5 0 0,1 3.5,0Z" style="opacity: 1; stroke-width: 0px; fill: rgb(234, 86, 140); fill-opacity: 1;"/><path class="point" transform="translate(149.16,107.45)" d="M3.5,0A3.5,3.5 0 1,1 0,-3.5A3.5,3.5 0 0,1 3.5,0Z" style="opacity: 1; stroke-width: 0px; fill: rgb(234, 86, 140); fill-opacity: 1;"/><path class="point" transform="translate(154.15,106.31)" d="M3.5,0A3.5,3.5 0 1,1 0,-3.5A3.5,3.5 0 0,1 3.5,0Z" style="opacity: 1; stroke-width: 0px; fill: rgb(234, 86, 140); fill-opacity: 1;"/><path class="point" transform="translate(159.15,126.69)" d="M3.5,0A3.5,3.5 0 1,1 0,-3.5A3.5,3.5 0 0,1 3.5,0Z" style="opacity: 1; stroke-width: 0px; fill: rgb(234, 86, 140); fill-opacity: 1;"/><path class="point" transform="translate(164.14,107.15)" d="M3.5,0A3.5,3.5 0 1,1 0,-3.5A3.5,3.5 0 0,1 3.5,0Z" style="opacity: 1; stroke-width: 0px; fill: rgb(234, 86, 140); fill-opacity: 1;"/><path class="point" transform="translate(169.13,119.93)" d="M3.5,0A3.5,3.5 0 1,1 0,-3.5A3.5,3.5 0 0,1 3.5,0Z" style="opacity: 1; stroke-width: 0px; fill: rgb(234, 86, 140); fill-opacity: 1;"/><path class="point" transform="translate(174.13,109.55)" d="M3.5,0A3.5,3.5 0 1,1 0,-3.5A3.5,3.5 0 0,1 3.5,0Z" style="opacity: 1; stroke-width: 0px; fill: rgb(234, 86, 140); fill-opacity: 1;"/><path class="point" transform="translate(179.12,103.54)" d="M3.5,0A3.5,3.5 0 1,1 0,-3.5A3.5,3.5 0 0,1 3.5,0Z" style="opacity: 1; stroke-width: 0px; fill: rgb(234, 86, 140); fill-opacity: 1;"/><path class="point" transform="translate(184.12,97.98)" d="M3.5,0A3.5,3.5 0 1,1 0,-3.5A3.5,3.5 0 0,1 3.5,0Z" style="opacity: 1; stroke-width: 0px; fill: rgb(234, 86, 140); fill-opacity: 1;"/><path class="point" transform="translate(189.11,106.7)" d="M3.5,0A3.5,3.5 0 1,1 0,-3.5A3.5,3.5 0 0,1 3.5,0Z" style="opacity: 1; stroke-width: 0px; fill: rgb(234, 86, 140); fill-opacity: 1;"/><path class="point" transform="translate(194.11,119.02)" d="M3.5,0A3.5,3.5 0 1,1 0,-3.5A3.5,3.5 0 0,1 3.5,0Z" style="opacity: 1; stroke-width: 0px; fill: rgb(234, 86, 140); fill-opacity: 1;"/><path class="point" transform="translate(199.1,112.03)" d="M3.5,0A3.5,3.5 0 1,1 0,-3.5A3.5,3.5 0 0,1 3.5,0Z" style="opacity: 1; stroke-width: 0px; fill: rgb(234, 86, 140); fill-opacity: 1;"/><path class="point" transform="translate(209.09,115.19)" d="M3.5,0A3.5,3.5 0 1,1 0,-3.5A3.5,3.5 0 0,1 3.5,0Z" style="opacity: 1; stroke-width: 0px; fill: rgb(234, 86, 140); fill-opacity: 1;"/><path class="point" transform="translate(219.08,114.96)" d="M3.5,0A3.5,3.5 0 1,1 0,-3.5A3.5,3.5 0 0,1 3.5,0Z" style="opacity: 1; stroke-width: 0px; fill: rgb(234, 86, 140); fill-opacity: 1;"/><path class="point" transform="translate(229.07,94.07)" d="M3.5,0A3.5,3.5 0 1,1 0,-3.5A3.5,3.5 0 0,1 3.5,0Z" style="opacity: 1; stroke-width: 0px; fill: rgb(234, 86, 140); fill-opacity: 1;"/><path class="point" transform="translate(234.07,97.04)" d="M3.5,0A3.5,3.5 0 1,1 0,-3.5A3.5,3.5 0 0,1 3.5,0Z" style="opacity: 1; stroke-width: 0px; fill: rgb(234, 86, 140); fill-opacity: 1;"/><path class="point" transform="translate(239.06,101.44)" d="M3.5,0A3.5,3.5 0 1,1 0,-3.5A3.5,3.5 0 0,1 3.5,0Z" style="opacity: 1; stroke-width: 0px; fill: rgb(234, 86, 140); fill-opacity: 1;"/><path class="point" transform="translate(244.06,92.79)" d="M3.5,0A3.5,3.5 0 1,1 0,-3.5A3.5,3.5 0 0,1 3.5,0Z" style="opacity: 1; stroke-width: 0px; fill: rgb(234, 86, 140); fill-opacity: 1;"/><path class="point" transform="translate(249.05,107.82)" d="M3.5,0A3.5,3.5 0 1,1 0,-3.5A3.5,3.5 0 0,1 3.5,0Z" style="opacity: 1; stroke-width: 0px; fill: rgb(234, 86, 140); fill-opacity: 1;"/><path class="point" transform="translate(254.05,96.19)" d="M3.5,0A3.5,3.5 0 1,1 0,-3.5A3.5,3.5 0 0,1 3.5,0Z" style="opacity: 1; stroke-width: 0px; fill: rgb(234, 86, 140); fill-opacity: 1;"/><path class="point" transform="translate(259.04,107.15)" d="M3.5,0A3.5,3.5 0 1,1 0,-3.5A3.5,3.5 0 0,1 3.5,0Z" style="opacity: 1; stroke-width: 0px; fill: rgb(234, 86, 140); fill-opacity: 1;"/><path class="point" transform="translate(264.04,93.8)" d="M3.5,0A3.5,3.5 0 1,1 0,-3.5A3.5,3.5 0 0,1 3.5,0Z" style="opacity: 1; stroke-width: 0px; fill: rgb(234, 86, 140); fill-opacity: 1;"/><path class="point" transform="translate(269.03,100.19)" d="M3.5,0A3.5,3.5 0 1,1 0,-3.5A3.5,3.5 0 0,1 3.5,0Z" style="opacity: 1; stroke-width: 0px; fill: rgb(234, 86, 140); fill-opacity: 1;"/><path class="point" transform="translate(274.03,91.77)" d="M3.5,0A3.5,3.5 0 1,1 0,-3.5A3.5,3.5 0 0,1 3.5,0Z" style="opacity: 1; stroke-width: 0px; fill: rgb(234, 86, 140); fill-opacity: 1;"/><path class="point" transform="translate(279.02,87.61)" d="M3.5,0A3.5,3.5 0 1,1 0,-3.5A3.5,3.5 0 0,1 3.5,0Z" style="opacity: 1; stroke-width: 0px; fill: rgb(234, 86, 140); fill-opacity: 1;"/><path class="point" transform="translate(284.02,86.05)" d="M3.5,0A3.5,3.5 0 1,1 0,-3.5A3.5,3.5 0 0,1 3.5,0Z" style="opacity: 1; stroke-width: 0px; fill: rgb(234, 86, 140); fill-opacity: 1;"/><path class="point" transform="translate(289.01,81.06)" d="M3.5,0A3.5,3.5 0 1,1 0,-3.5A3.5,3.5 0 0,1 3.5,0Z" style="opacity: 1; stroke-width: 0px; fill: rgb(234, 86, 140); fill-opacity: 1;"/><path class="point" transform="translate(294.01,61.86)" d="M3.5,0A3.5,3.5 0 1,1 0,-3.5A3.5,3.5 0 0,1 3.5,0Z" style="opacity: 1; stroke-width: 0px; fill: rgb(234, 86, 140); fill-opacity: 1;"/><path class="point" transform="translate(299,82.48)" d="M3.5,0A3.5,3.5 0 1,1 0,-3.5A3.5,3.5 0 0,1 3.5,0Z" style="opacity: 1; stroke-width: 0px; fill: rgb(234, 86, 140); fill-opacity: 1;"/><path class="point" transform="translate(303.99,89.43)" d="M3.5,0A3.5,3.5 0 1,1 0,-3.5A3.5,3.5 0 0,1 3.5,0Z" style="opacity: 1; stroke-width: 0px; fill: rgb(234, 86, 140); fill-opacity: 1;"/><path class="point" transform="translate(308.99,74.32)" d="M3.5,0A3.5,3.5 0 1,1 0,-3.5A3.5,3.5 0 0,1 3.5,0Z" style="opacity: 1; stroke-width: 0px; fill: rgb(234, 86, 140); fill-opacity: 1;"/><path class="point" transform="translate(313.98,62.73)" d="M3.5,0A3.5,3.5 0 1,1 0,-3.5A3.5,3.5 0 0,1 3.5,0Z" style="opacity: 1; stroke-width: 0px; fill: rgb(234, 86, 140); fill-opacity: 1;"/><path class="point" transform="translate(318.98,70.49)" d="M3.5,0A3.5,3.5 0 1,1 0,-3.5A3.5,3.5 0 0,1 3.5,0Z" style="opacity: 1; stroke-width: 0px; fill: rgb(234, 86, 140); fill-opacity: 1;"/><path class="point" transform="translate(323.97,80.4)" d="M3.5,0A3.5,3.5 0 1,1 0,-3.5A3.5,3.5 0 0,1 3.5,0Z" style="opacity: 1; stroke-width: 0px; fill: rgb(234, 86, 140); fill-opacity: 1;"/><path class="point" transform="translate(328.97,68.88)" d="M3.5,0A3.5,3.5 0 1,1 0,-3.5A3.5,3.5 0 0,1 3.5,0Z" style="opacity: 1; stroke-width: 0px; fill: rgb(234, 86, 140); fill-opacity: 1;"/><path class="point" transform="translate(333.96,58.94)" d="M3.5,0A3.5,3.5 0 1,1 0,-3.5A3.5,3.5 0 0,1 3.5,0Z" style="opacity: 1; stroke-width: 0px; fill: rgb(234, 86, 140); fill-opacity: 1;"/><path class="point" transform="translate(338.96,48.59)" d="M3.5,0A3.5,3.5 0 1,1 0,-3.5A3.5,3.5 0 0,1 3.5,0Z" style="opacity: 1; stroke-width: 0px; fill: rgb(234, 86, 140); fill-opacity: 1;"/><path class="point" transform="translate(343.95,62.39)" d="M3.5,0A3.5,3.5 0 1,1 0,-3.5A3.5,3.5 0 0,1 3.5,0Z" style="opacity: 1; stroke-width: 0px; fill: rgb(234, 86, 140); fill-opacity: 1;"/><path class="point" transform="translate(348.95,64.63)" d="M3.5,0A3.5,3.5 0 1,1 0,-3.5A3.5,3.5 0 0,1 3.5,0Z" style="opacity: 1; stroke-width: 0px; fill: rgb(234, 86, 140); fill-opacity: 1;"/><path class="point" transform="translate(353.94,52.35)" d="M3.5,0A3.5,3.5 0 1,1 0,-3.5A3.5,3.5 0 0,1 3.5,0Z" style="opacity: 1; stroke-width: 0px; fill: rgb(234, 86, 140); fill-opacity: 1;"/><path class="point" transform="translate(358.94,61.09)" d="M3.5,0A3.5,3.5 0 1,1 0,-3.5A3.5,3.5 0 0,1 3.5,0Z" style="opacity: 1; stroke-width: 0px; fill: rgb(234, 86, 140); fill-opacity: 1;"/><path class="point" transform="translate(363.93,60.72)" d="M3.5,0A3.5,3.5 0 1,1 0,-3.5A3.5,3.5 0 0,1 3.5,0Z" style="opacity: 1; stroke-width: 0px; fill: rgb(234, 86, 140); fill-opacity: 1;"/><path class="point" transform="translate(368.93,67.25)" d="M3.5,0A3.5,3.5 0 1,1 0,-3.5A3.5,3.5 0 0,1 3.5,0Z" style="opacity: 1; stroke-width: 0px; fill: rgb(234, 86, 140); fill-opacity: 1;"/><path class="point" transform="translate(373.92,72)" d="M3.5,0A3.5,3.5 0 1,1 0,-3.5A3.5,3.5 0 0,1 3.5,0Z" style="opacity: 1; stroke-width: 0px; fill: rgb(234, 86, 140); fill-opacity: 1;"/><path class="point" transform="translate(378.92,64.93)" d="M3.5,0A3.5,3.5 0 1,1 0,-3.5A3.5,3.5 0 0,1 3.5,0Z" style="opacity: 1; stroke-width: 0px; fill: rgb(234, 86, 140); fill-opacity: 1;"/><path class="point" transform="translate(383.91,68.93)" d="M3.5,0A3.5,3.5 0 1,1 0,-3.5A3.5,3.5 0 0,1 3.5,0Z" style="opacity: 1; stroke-width: 0px; fill: rgb(234, 86, 140); fill-opacity: 1;"/><path class="point" transform="translate(388.91,58.98)" d="M3.5,0A3.5,3.5 0 1,1 0,-3.5A3.5,3.5 0 0,1 3.5,0Z" style="opacity: 1; stroke-width: 0px; fill: rgb(234, 86, 140); fill-opacity: 1;"/><path class="point" transform="translate(393.9,64.09)" d="M3.5,0A3.5,3.5 0 1,1 0,-3.5A3.5,3.5 0 0,1 3.5,0Z" style="opacity: 1; stroke-width: 0px; fill: rgb(234, 86, 140); fill-opacity: 1;"/><path class="point" transform="translate(398.9,71)" d="M3.5,0A3.5,3.5 0 1,1 0,-3.5A3.5,3.5 0 0,1 3.5,0Z" style="opacity: 1; stroke-width: 0px; fill: rgb(234, 86, 140); fill-opacity: 1;"/><path class="point" transform="translate(403.89,66.13)" d="M3.5,0A3.5,3.5 0 1,1 0,-3.5A3.5,3.5 0 0,1 3.5,0Z" style="opacity: 1; stroke-width: 0px; fill: rgb(234, 86, 140); fill-opacity: 1;"/><path class="point" transform="translate(408.89,61.76)" d="M3.5,0A3.5,3.5 0 1,1 0,-3.5A3.5,3.5 0 0,1 3.5,0Z" style="opacity: 1; stroke-width: 0px; fill: rgb(234, 86, 140); fill-opacity: 1;"/><path class="point" transform="translate(413.88,54.37)" d="M3.5,0A3.5,3.5 0 1,1 0,-3.5A3.5,3.5 0 0,1 3.5,0Z" style="opacity: 1; stroke-width: 0px; fill: rgb(234, 86, 140); fill-opacity: 1;"/><path class="point" transform="translate(418.88,58.83)" d="M3.5,0A3.5,3.5 0 1,1 0,-3.5A3.5,3.5 0 0,1 3.5,0Z" style="opacity: 1; stroke-width: 0px; fill: rgb(234, 86, 140); fill-opacity: 1;"/><path class="point" transform="translate(423.87,48.02)" d="M3.5,0A3.5,3.5 0 1,1 0,-3.5A3.5,3.5 0 0,1 3.5,0Z" style="opacity: 1; stroke-width: 0px; fill: rgb(234, 86, 140); fill-opacity: 1;"/><path class="point" transform="translate(428.87,56.68)" d="M3.5,0A3.5,3.5 0 1,1 0,-3.5A3.5,3.5 0 0,1 3.5,0Z" style="opacity: 1; stroke-width: 0px; fill: rgb(234, 86, 140); fill-opacity: 1;"/><path class="point" transform="translate(433.86,56.59)" d="M3.5,0A3.5,3.5 0 1,1 0,-3.5A3.5,3.5 0 0,1 3.5,0Z" style="opacity: 1; stroke-width: 0px; fill: rgb(234, 86, 140); fill-opacity: 1;"/><path class="point" transform="translate(438.85,55.33)" d="M3.5,0A3.5,3.5 0 1,1 0,-3.5A3.5,3.5 0 0,1 3.5,0Z" style="opacity: 1; stroke-width: 0px; fill: rgb(234, 86, 140); fill-opacity: 1;"/><path class="point" transform="translate(443.85,56.22)" d="M3.5,0A3.5,3.5 0 1,1 0,-3.5A3.5,3.5 0 0,1 3.5,0Z" style="opacity: 1; stroke-width: 0px; fill: rgb(234, 86, 140); fill-opacity: 1;"/><path class="point" transform="translate(448.84,59.27)" d="M3.5,0A3.5,3.5 0 1,1 0,-3.5A3.5,3.5 0 0,1 3.5,0Z" style="opacity: 1; stroke-width: 0px; fill: rgb(234, 86, 140); fill-opacity: 1;"/><path class="point" transform="translate(453.84,64.88)" d="M3.5,0A3.5,3.5 0 1,1 0,-3.5A3.5,3.5 0 0,1 3.5,0Z" style="opacity: 1; stroke-width: 0px; fill: rgb(234, 86, 140); fill-opacity: 1;"/><path class="point" transform="translate(458.83,59.77)" d="M3.5,0A3.5,3.5 0 1,1 0,-3.5A3.5,3.5 0 0,1 3.5,0Z" style="opacity: 1; stroke-width: 0px; fill: rgb(234, 86, 140); fill-opacity: 1;"/><path class="point" transform="translate(463.83,58.84)" d="M3.5,0A3.5,3.5 0 1,1 0,-3.5A3.5,3.5 0 0,1 3.5,0Z" style="opacity: 1; stroke-width: 0px; fill: rgb(234, 86, 140); fill-opacity: 1;"/><path class="point" transform="translate(468.82,54.87)" d="M3.5,0A3.5,3.5 0 1,1 0,-3.5A3.5,3.5 0 0,1 3.5,0Z" style="opacity: 1; stroke-width: 0px; fill: rgb(234, 86, 140); fill-opacity: 1;"/><path class="point" transform="translate(473.82,50.46)" d="M3.5,0A3.5,3.5 0 1,1 0,-3.5A3.5,3.5 0 0,1 3.5,0Z" style="opacity: 1; stroke-width: 0px; fill: rgb(234, 86, 140); fill-opacity: 1;"/><path class="point" transform="translate(478.81,48.46)" d="M3.5,0A3.5,3.5 0 1,1 0,-3.5A3.5,3.5 0 0,1 3.5,0Z" style="opacity: 1; stroke-width: 0px; fill: rgb(234, 86, 140); fill-opacity: 1;"/><path class="point" transform="translate(483.81,43.16)" d="M3.5,0A3.5,3.5 0 1,1 0,-3.5A3.5,3.5 0 0,1 3.5,0Z" style="opacity: 1; stroke-width: 0px; fill: rgb(234, 86, 140); fill-opacity: 1;"/><path class="point" transform="translate(488.8,43.46)" d="M3.5,0A3.5,3.5 0 1,1 0,-3.5A3.5,3.5 0 0,1 3.5,0Z" style="opacity: 1; stroke-width: 0px; fill: rgb(234, 86, 140); fill-opacity: 1;"/><path class="point" transform="translate(493.8,47.32)" d="M3.5,0A3.5,3.5 0 1,1 0,-3.5A3.5,3.5 0 0,1 3.5,0Z" style="opacity: 1; stroke-width: 0px; fill: rgb(234, 86, 140); fill-opacity: 1;"/><path class="point" transform="translate(498.79,50.09)" d="M3.5,0A3.5,3.5 0 1,1 0,-3.5A3.5,3.5 0 0,1 3.5,0Z" style="opacity: 1; stroke-width: 0px; fill: rgb(234, 86, 140); fill-opacity: 1;"/><path class="point" transform="translate(503.79,51.01)" d="M3.5,0A3.5,3.5 0 1,1 0,-3.5A3.5,3.5 0 0,1 3.5,0Z" style="opacity: 1; stroke-width: 0px; fill: rgb(234, 86, 140); fill-opacity: 1;"/><path class="point" transform="translate(508.78,51.28)" d="M3.5,0A3.5,3.5 0 1,1 0,-3.5A3.5,3.5 0 0,1 3.5,0Z" style="opacity: 1; stroke-width: 0px; fill: rgb(234, 86, 140); fill-opacity: 1;"/><path class="point" transform="translate(513.78,51.05)" d="M3.5,0A3.5,3.5 0 1,1 0,-3.5A3.5,3.5 0 0,1 3.5,0Z" style="opacity: 1; stroke-width: 0px; fill: rgb(234, 86, 140); fill-opacity: 1;"/><path class="point" transform="translate(518.77,51.24)" d="M3.5,0A3.5,3.5 0 1,1 0,-3.5A3.5,3.5 0 0,1 3.5,0Z" style="opacity: 1; stroke-width: 0px; fill: rgb(234, 86, 140); fill-opacity: 1;"/><path class="point" transform="translate(523.77,49.68)" d="M3.5,0A3.5,3.5 0 1,1 0,-3.5A3.5,3.5 0 0,1 3.5,0Z" style="opacity: 1; stroke-width: 0px; fill: rgb(234, 86, 140); fill-opacity: 1;"/><path class="point" transform="translate(528.76,50.62)" d="M3.5,0A3.5,3.5 0 1,1 0,-3.5A3.5,3.5 0 0,1 3.5,0Z" style="opacity: 1; stroke-width: 0px; fill: rgb(234, 86, 140); fill-opacity: 1;"/><path class="point" transform="translate(533.76,51.94)" d="M3.5,0A3.5,3.5 0 1,1 0,-3.5A3.5,3.5 0 0,1 3.5,0Z" style="opacity: 1; stroke-width: 0px; fill: rgb(234, 86, 140); fill-opacity: 1;"/><path class="point" transform="translate(538.75,48.6)" d="M3.5,0A3.5,3.5 0 1,1 0,-3.5A3.5,3.5 0 0,1 3.5,0Z" style="opacity: 1; stroke-width: 0px; fill: rgb(234, 86, 140); fill-opacity: 1;"/><path class="point" transform="translate(543.75,45.62)" d="M3.5,0A3.5,3.5 0 1,1 0,-3.5A3.5,3.5 0 0,1 3.5,0Z" style="opacity: 1; stroke-width: 0px; fill: rgb(234, 86, 140); fill-opacity: 1;"/><path class="point" transform="translate(548.74,43.95)" d="M3.5,0A3.5,3.5 0 1,1 0,-3.5A3.5,3.5 0 0,1 3.5,0Z" style="opacity: 1; stroke-width: 0px; fill: rgb(234, 86, 140); fill-opacity: 1;"/><path class="point" transform="translate(553.74,39.11)" d="M3.5,0A3.5,3.5 0 1,1 0,-3.5A3.5,3.5 0 0,1 3.5,0Z" style="opacity: 1; stroke-width: 0px; fill: rgb(234, 86, 140); fill-opacity: 1;"/><path class="point" transform="translate(558.73,37.33)" d="M3.5,0A3.5,3.5 0 1,1 0,-3.5A3.5,3.5 0 0,1 3.5,0Z" style="opacity: 1; stroke-width: 0px; fill: rgb(234, 86, 140); fill-opacity: 1;"/><path class="point" transform="translate(563.72,30.91)" d="M3.5,0A3.5,3.5 0 1,1 0,-3.5A3.5,3.5 0 0,1 3.5,0Z" style="opacity: 1; stroke-width: 0px; fill: rgb(234, 86, 140); fill-opacity: 1;"/></g><g class="text"/></g></g></g></g><g class="zerolinelayer-above"/><path class="xlines-above crisp" d="M0,0" style="fill: none;"/><path class="ylines-above crisp" d="M0,0" style="fill: none;"/><g class="overlines-above"/><g class="xaxislayer-above"><g class="xtick"><text text-anchor="middle" x="0" y="453" transform="translate(111.25999999999999,0)" style="font-family: Tahoma; font-size: 12px; fill: rgb(42, 63, 95); fill-opacity: 1; white-space: pre;">1920</text></g><g class="xtick"><text text-anchor="middle" x="0" y="453" style="font-family: Tahoma; font-size: 12px; fill: rgb(42, 63, 95); fill-opacity: 1; white-space: pre;" transform="translate(161.20999999999998,0)">1930</text></g><g class="xtick"><text text-anchor="middle" x="0" y="453" style="font-family: Tahoma; font-size: 12px; fill: rgb(42, 63, 95); fill-opacity: 1; white-space: pre;" transform="translate(211.16,0)">1940</text></g><g class="xtick"><text text-anchor="middle" x="0" y="453" style="font-family: Tahoma; font-size: 12px; fill: rgb(42, 63, 95); fill-opacity: 1; white-space: pre;" transform="translate(261.1,0)">1950</text></g><g class="xtick"><text text-anchor="middle" x="0" y="453" style="font-family: Tahoma; font-size: 12px; fill: rgb(42, 63, 95); fill-opacity: 1; white-space: pre;" transform="translate(311.05,0)">1960</text></g><g class="xtick"><text text-anchor="middle" x="0" y="453" style="font-family: Tahoma; font-size: 12px; fill: rgb(42, 63, 95); fill-opacity: 1; white-space: pre;" transform="translate(361,0)">1970</text></g><g class="xtick"><text text-anchor="middle" x="0" y="453" style="font-family: Tahoma; font-size: 12px; fill: rgb(42, 63, 95); fill-opacity: 1; white-space: pre;" transform="translate(410.95,0)">1980</text></g><g class="xtick"><text text-anchor="middle" x="0" y="453" style="font-family: Tahoma; font-size: 12px; fill: rgb(42, 63, 95); fill-opacity: 1; white-space: pre;" transform="translate(460.9,0)">1990</text></g><g class="xtick"><text text-anchor="middle" x="0" y="453" style="font-family: Tahoma; font-size: 12px; fill: rgb(42, 63, 95); fill-opacity: 1; white-space: pre;" transform="translate(510.84,0)">2000</text></g><g class="xtick"><text text-anchor="middle" x="0" y="453" style="font-family: Tahoma; font-size: 12px; fill: rgb(42, 63, 95); fill-opacity: 1; white-space: pre;" transform="translate(560.79,0)">2010</text></g><g class="xtick"><text text-anchor="middle" x="0" y="453" style="font-family: Tahoma; font-size: 12px; fill: rgb(42, 63, 95); fill-opacity: 1; white-space: pre;" transform="translate(610.74,0)">2020</text></g></g><g class="yaxislayer-above"><g class="ytick"><text text-anchor="end" x="61" y="4.199999999999999" transform="translate(0,440)" style="font-family: Tahoma; font-size: 12px; fill: rgb(42, 63, 95); fill-opacity: 1; white-space: pre;">0.00</text></g><g class="ytick"><text text-anchor="end" x="61" y="4.199999999999999" style="font-family: Tahoma; font-size: 12px; fill: rgb(42, 63, 95); fill-opacity: 1; white-space: pre;" transform="translate(0,394.9)">1.00</text></g><g class="ytick"><text text-anchor="end" x="61" y="4.199999999999999" style="font-family: Tahoma; font-size: 12px; fill: rgb(42, 63, 95); fill-opacity: 1; white-space: pre;" transform="translate(0,349.81)">2.00</text></g><g class="ytick"><text text-anchor="end" x="61" y="4.199999999999999" style="font-family: Tahoma; font-size: 12px; fill: rgb(42, 63, 95); fill-opacity: 1; white-space: pre;" transform="translate(0,304.71000000000004)">3.00</text></g><g class="ytick"><text text-anchor="end" x="61" y="4.199999999999999" style="font-family: Tahoma; font-size: 12px; fill: rgb(42, 63, 95); fill-opacity: 1; white-space: pre;" transform="translate(0,259.61)">4.00</text></g><g class="ytick"><text text-anchor="end" x="61" y="4.199999999999999" style="font-family: Tahoma; font-size: 12px; fill: rgb(42, 63, 95); fill-opacity: 1; white-space: pre;" transform="translate(0,214.51)">5.00</text></g><g class="ytick"><text text-anchor="end" x="61" y="4.199999999999999" style="font-family: Tahoma; font-size: 12px; fill: rgb(42, 63, 95); fill-opacity: 1; white-space: pre;" transform="translate(0,169.42000000000002)">6.00</text></g><g class="ytick"><text text-anchor="end" x="61" y="4.199999999999999" style="font-family: Tahoma; font-size: 12px; fill: rgb(42, 63, 95); fill-opacity: 1; white-space: pre;" transform="translate(0,124.32)">7.00</text></g></g><g class="overaxes-above"/></g></g><g class="polarlayer"/><g class="smithlayer"/><g class="ternarylayer"/><g class="geolayer"/><g class="funnelarealayer"/><g class="pielayer"/><g class="iciclelayer"/><g class="treemaplayer"/><g class="sunburstlayer"/><g class="glimages"/><defs id="topdefs-040787"><g class="clips"/></defs><g class="layer-above"><g class="imagelayer"/><g class="shapelayer"/></g><g class="infolayer"><g class="g-gtitle"><text class="gtitle" x="14" y="50" text-anchor="start" dy="0em" style="opacity: 1; font-family: Tahoma; font-size: 17px; fill: rgb(42, 63, 95); fill-opacity: 1; white-space: pre;"><tspan class="line" dy="0em" x="14" y="50"><tspan style="font-weight:bold">Complete Timeline Shows Steady Average Score Improvement</tspan></tspan><tspan class="line" dy="1.3em" x="14" y="50"><tspan style=" fill:#555555; font-size:14px">(Average Score by Release Year — Cleaned Data)</tspan></tspan></text></g><g class="g-xtitle"/><g class="g-ytitle"/></g></svg>