<svg class="main-svg" xmlns="http://www.w3.org/2000/svg" xmlns:xlink="http://www.w3.org/1999/xlink" width="900" height="550" style="" viewBox="0 0 900 550"><rect x="0" y="0" width="900" height="550" style="fill: rgb(0, 0, 0); fill-opacity: 0;"/><defs id="defs-f28ae0"><g class="clips"><clipPath id="clipf28ae0xyplot" class="plotclip"><rect width="805" height="390"/></clipPath><clipPath class="axesclip" id="clipf28ae0x"><rect x="55" y="0" width="805" height="550"/></clipPath><clipPath class="axesclip" id="clipf28ae0y"><rect x="0" y="100" width="900" height="390"/></clipPath><clipPath class="axesclip" id="clipf28ae0xy"><rect x="55" y="100" width="805" height="390"/></clipPath></g><g class="gradients"/><g class="patterns"/></defs><g class="bglayer"><rect class="bg" x="55" y="100" width="805" height="390" style="fill: rgb(0, 0, 0); fill-opacity: 0; stroke-width: 0;"/></g><g class="layer-below"><g class="imagelayer"/><g class="shapelayer"/></g><g class="cartesianlayer"><g class="subplot xy"><g class="layer-subplot"><g class="shapelayer"/><g class="imagelayer"/></g><g class="minor-gridlayer"><g class="x"/><g class="y"/></g><g class="gridlayer"><g class="x"/><g class="y"><path class="ygrid crisp" transform="translate(0,412)" d="M55,0h805" style="stroke: rgb(235, 240, 248); stroke-opacity: 1; stroke-width: 1px;"/><path class="ygrid crisp" transform="translate(0,334)" d="M55,0h805" style="stroke: rgb(235, 240, 248); stroke-opacity: 1; stroke-width: 1px;"/><path class="ygrid crisp" transform="translate(0,256)" d="M55,0h805" style="stroke: rgb(235, 240, 248); stroke-opacity: 1; stroke-width: 1px;"/><path class="ygrid crisp" transform="translate(0,178)" d="M55,0h805" style="stroke: rgb(235, 240, 248); stroke-opacity: 1; stroke-width: 1px;"/></g></g><g class="zerolinelayer"><path class="yzl zl crisp" transform="translate(0,490)" d="M55,0h805" style="stroke: rgb(235, 240, 248); stroke-opacity: 1; stroke-width: 2px;"/></g><g class="layer-between"><g class="shapelayer"/><g class="imagelayer"/></g><path class="xlines-below"/><path class="ylines-below"/><g class="overlines-below"/><g class="xaxislayer-below"/><g class="yaxislayer-below"/><g class="overaxes-below"/><g class="overplot"><g class="xy" transform="translate(55,100)" clip-path="url(#clipf28ae0xyplot)"><g class="boxlayer mlayer"><g class="trace boxes" style="opacity: 1;"><path class="box" d="M41.06,136.89H119.95M41.06,166.43H119.95V106.47H41.06ZM80.5,166.43V195M80.5,106.47V67.08M60.78,195H100.22M60.78,67.08H100.22" style="vector-effect: none; stroke-width: 2px; stroke: rgb(211, 211, 211); stroke-opacity: 1; fill: rgb(211, 211, 211); fill-opacity: 0.5;"/><g class="points"/><path class="mean" d="M41.06,133.94H119.95" style="fill: none; vector-effect: non-scaling-stroke; stroke-width: 2; stroke-dasharray: 4px, 2px; stroke: rgb(211, 211, 211); stroke-opacity: 1;"/></g><g class="trace boxes" style="opacity: 1;"><path class="box" d="M202.06,119.93H280.95M202.06,139.23H280.95V100.62H202.06ZM241.5,139.23V193.05M241.5,100.62V43.68M221.78,193.05H261.22M221.78,43.68H261.22" style="vector-effect: none; stroke-width: 2px; stroke: rgb(211, 211, 211); stroke-opacity: 1; fill: rgb(211, 211, 211); fill-opacity: 0.5;"/><g class="points"><path class="point" transform="translate(241.5,276.9)" d="M3,0A3,3 0 1,1 0,-3A3,3 0 0,1 3,0Z" style="opacity: 1; stroke-width: 0px; fill: rgb(211, 211, 211); fill-opacity: 1;"/><path class="point" transform="translate(241.5,242.19)" d="M3,0A3,3 0 1,1 0,-3A3,3 0 0,1 3,0Z" style="opacity: 1; stroke-width: 0px; fill: rgb(211, 211, 211); fill-opacity: 1;"/><path class="point" transform="translate(241.5,241.41)" d="M3,0A3,3 0 1,1 0,-3A3,3 0 0,1 3,0Z" style="opacity: 1; stroke-width: 0px; fill: rgb(211, 211, 211); fill-opacity: 1;"/><path class="point" transform="translate(241.5,214.89)" d="M3,0A3,3 0 1,1 0,-3A3,3 0 0,1 3,0Z" style="opacity: 1; stroke-width: 0px; fill: rgb(211, 211, 211); fill-opacity: 1;"/><path class="point" transform="translate(241.5,211.38)" d="M3,0A3,3 0 1,1 0,-3A3,3 0 0,1 3,0Z" style="opacity: 1; stroke-width: 0px; fill: rgb(211, 211, 211); fill-opacity: 1;"/><path class="point" transform="translate(241.5,210.6)" d="M3,0A3,3 0 1,1 0,-3A3,3 0 0,1 3,0Z" style="opacity: 1; stroke-width: 0px; fill: rgb(211, 211, 211); fill-opacity: 1;"/><path class="point" transform="translate(241.5,210.6)" d="M3,0A3,3 0 1,1 0,-3A3,3 0 0,1 3,0Z" style="opacity: 1; stroke-width: 0px; fill: rgb(211, 211, 211); fill-opacity: 1;"/><path class="point" transform="translate(241.5,207.48)" d="M3,0A3,3 0 1,1 0,-3A3,3 0 0,1 3,0Z" style="opacity: 1; stroke-width: 0px; fill: rgb(211, 211, 211); fill-opacity: 1;"/><path class="point" transform="translate(241.5,205.92)" d="M3,0A3,3 0 1,1 0,-3A3,3 0 0,1 3,0Z" style="opacity: 1; stroke-width: 0px; fill: rgb(211, 211, 211); fill-opacity: 1;"/><path class="point" transform="translate(241.5,202.02)" d="M3,0A3,3 0 1,1 0,-3A3,3 0 0,1 3,0Z" style="opacity: 1; stroke-width: 0px; fill: rgb(211, 211, 211); fill-opacity: 1;"/><path class="point" transform="translate(241.5,200.07)" d="M3,0A3,3 0 1,1 0,-3A3,3 0 0,1 3,0Z" style="opacity: 1; stroke-width: 0px; fill: rgb(211, 211, 211); fill-opacity: 1;"/><path class="point" transform="translate(241.5,199.29)" d="M3,0A3,3 0 1,1 0,-3A3,3 0 0,1 3,0Z" style="opacity: 1; stroke-width: 0px; fill: rgb(211, 211, 211); fill-opacity: 1;"/><path class="point" transform="translate(241.5,39.78)" d="M3,0A3,3 0 1,1 0,-3A3,3 0 0,1 3,0Z" style="opacity: 1; stroke-width: 0px; fill: rgb(211, 211, 211); fill-opacity: 1;"/><path class="point" transform="translate(241.5,39.78)" d="M3,0A3,3 0 1,1 0,-3A3,3 0 0,1 3,0Z" style="opacity: 1; stroke-width: 0px; fill: rgb(211, 211, 211); fill-opacity: 1;"/><path class="point" transform="translate(241.5,37.05)" d="M3,0A3,3 0 1,1 0,-3A3,3 0 0,1 3,0Z" style="opacity: 1; stroke-width: 0px; fill: rgb(211, 211, 211); fill-opacity: 1;"/></g><path class="mean" d="M202.06,120.43H280.95" style="fill: none; vector-effect: non-scaling-stroke; stroke-width: 2; stroke-dasharray: 4px, 2px; stroke: rgb(211, 211, 211); stroke-opacity: 1;"/></g><g class="trace boxes" style="opacity: 1;"><path class="box" d="M363.06,110.76H441.95M363.06,133.38H441.95V92.04H363.06ZM402.5,133.38V192.66M402.5,92.04V36.27M382.78,192.66H422.22M382.78,36.27H422.22" style="vector-effect: none; stroke-width: 2px; stroke: rgb(106, 27, 154); stroke-opacity: 1; fill: rgb(106, 27, 154); fill-opacity: 0.5;"/><g class="points"><path class="point" transform="translate(402.5,261.3)" d="M3,0A3,3 0 1,1 0,-3A3,3 0 0,1 3,0Z" style="opacity: 1; stroke-width: 0px; fill: rgb(106, 27, 154); fill-opacity: 1;"/><path class="point" transform="translate(402.5,208.26)" d="M3,0A3,3 0 1,1 0,-3A3,3 0 0,1 3,0Z" style="opacity: 1; stroke-width: 0px; fill: rgb(106, 27, 154); fill-opacity: 1;"/><path class="point" transform="translate(402.5,205.92)" d="M3,0A3,3 0 1,1 0,-3A3,3 0 0,1 3,0Z" style="opacity: 1; stroke-width: 0px; fill: rgb(106, 27, 154); fill-opacity: 1;"/><path class="point" transform="translate(402.5,197.73)" d="M3,0A3,3 0 1,1 0,-3A3,3 0 0,1 3,0Z" style="opacity: 1; stroke-width: 0px; fill: rgb(106, 27, 154); fill-opacity: 1;"/></g><path class="mean" d="M363.06,112.34H441.95" style="fill: none; vector-effect: non-scaling-stroke; stroke-width: 2; stroke-dasharray: 4px, 2px; stroke: rgb(106, 27, 154); stroke-opacity: 1;"/></g><g class="trace boxes" style="opacity: 1;"><path class="box" d="M524.06,118.95H602.95M524.06,140.4H602.95V103.74H524.06ZM563.5,140.4V181.74M563.5,103.74V48.75M543.78,181.74H583.22M543.78,48.75H583.22" style="vector-effect: none; stroke-width: 2px; stroke: rgb(211, 211, 211); stroke-opacity: 1; fill: rgb(211, 211, 211); fill-opacity: 0.5;"/><g class="points"><path class="point" transform="translate(563.5,47.97)" d="M3,0A3,3 0 1,1 0,-3A3,3 0 0,1 3,0Z" style="opacity: 1; stroke-width: 0px; fill: rgb(211, 211, 211); fill-opacity: 1;"/><path class="point" transform="translate(563.5,46.41)" d="M3,0A3,3 0 1,1 0,-3A3,3 0 0,1 3,0Z" style="opacity: 1; stroke-width: 0px; fill: rgb(211, 211, 211); fill-opacity: 1;"/></g><path class="mean" d="M524.06,120.58H602.95" style="fill: none; vector-effect: non-scaling-stroke; stroke-width: 2; stroke-dasharray: 4px, 2px; stroke: rgb(211, 211, 211); stroke-opacity: 1;"/></g><g class="trace boxes" style="opacity: 1;"><path class="box" d="M685.06,125.19H763.95M685.06,141.57H763.95V107.64H685.06ZM724.5,141.57V182.52M724.5,107.64V58.5M704.78,182.52H744.22M704.78,58.5H744.22" style="vector-effect: none; stroke-width: 2px; stroke: rgb(211, 211, 211); stroke-opacity: 1; fill: rgb(211, 211, 211); fill-opacity: 0.5;"/><g class="points"><path class="point" transform="translate(724.5,48.36)" d="M3,0A3,3 0 1,1 0,-3A3,3 0 0,1 3,0Z" style="opacity: 1; stroke-width: 0px; fill: rgb(211, 211, 211); fill-opacity: 1;"/><path class="point" transform="translate(724.5,44.07)" d="M3,0A3,3 0 1,1 0,-3A3,3 0 0,1 3,0Z" style="opacity: 1; stroke-width: 0px; fill: rgb(211, 211, 211); fill-opacity: 1;"/><path class="point" transform="translate(724.5,37.44)" d="M3,0A3,3 0 1,1 0,-3A3,3 0 0,1 3,0Z" style="opacity: 1; stroke-width: 0px; fill: rgb(211, 211, 211); fill-opacity: 1;"/><path class="point" transform="translate(724.5,36.66)" d="M3,0A3,3 0 1,1 0,-3A3,3 0 0,1 3,0Z" style="opacity: 1; stroke-width: 0px; fill: rgb(211, 211, 211); fill-opacity: 1;"/><path class="point" transform="translate(724.5,35.1)" d="M3,0A3,3 0 1,1 0,-3A3,3 0 0,1 3,0Z" style="opacity: 1; stroke-width: 0px; fill: rgb(211, 211, 211); fill-opacity: 1;"/></g><path class="mean" d="M685.06,123.96H763.95" style="fill: none; vector-effect: non-scaling-stroke; stroke-width: 2; stroke-dasharray: 4px, 2px; stroke: rgb(211, 211, 211); stroke-opacity: 1;"/></g></g></g></g><g class="zerolinelayer-above"/><path class="xlines-above crisp" d="M0,0" style="fill: none;"/><path class="ylines-above crisp" d="M54.5,100V490" style="fill: none; stroke-width: 1px; stroke: rgb(204, 204, 204); stroke-opacity: 1;"/><g class="overlines-above"/><g class="xaxislayer-above"><g class="xtick"><text text-anchor="middle" x="0" y="504" transform="translate(135.5,0)" style="font-family: Tahoma; font-size: 13px; fill: rgb(42, 63, 95); fill-opacity: 1; white-space: pre;">1–5</text></g><g class="xtick"><text text-anchor="middle" x="0" y="504" transform="translate(296.5,0)" style="font-family: Tahoma; font-size: 13px; fill: rgb(42, 63, 95); fill-opacity: 1; white-space: pre;">6–12</text></g><g class="xtick"><text text-anchor="middle" x="0" y="504" transform="translate(457.5,0)" style="font-family: Tahoma; font-size: 13px; fill: rgb(42, 63, 95); fill-opacity: 1; white-space: pre;">13–25</text></g><g class="xtick"><text text-anchor="middle" x="0" y="504" transform="translate(618.5,0)" style="font-family: Tahoma; font-size: 13px; fill: rgb(42, 63, 95); fill-opacity: 1; white-space: pre;">26–50</text></g><g class="xtick"><text text-anchor="middle" x="0" y="504" transform="translate(779.5,0)" style="font-family: Tahoma; font-size: 13px; fill: rgb(42, 63, 95); fill-opacity: 1; white-space: pre;">> 50</text></g></g><g class="yaxislayer-above"><path class="ytick ticks crisp" d="M55,0h8" transform="translate(0,412)" style="stroke: rgb(204, 204, 204); stroke-opacity: 1; stroke-width: 0.5px;"/><path class="ytick ticks crisp" d="M55,0h8" transform="translate(0,334)" style="stroke: rgb(204, 204, 204); stroke-opacity: 1; stroke-width: 0.5px;"/><path class="ytick ticks crisp" d="M55,0h8" transform="translate(0,256)" style="stroke: rgb(204, 204, 204); stroke-opacity: 1; stroke-width: 0.5px;"/><path class="ytick ticks crisp" d="M55,0h8" transform="translate(0,178)" style="stroke: rgb(204, 204, 204); stroke-opacity: 1; stroke-width: 0.5px;"/><g class="ytick"><text text-anchor="end" x="51.4" y="4.55" transform="translate(0,490)" style="font-family: Tahoma; font-size: 13px; fill: rgb(42, 63, 95); fill-opacity: 1; white-space: pre;">0</text></g><g class="ytick"><text text-anchor="end" x="51.4" y="4.55" style="font-family: Tahoma; font-size: 13px; fill: rgb(42, 63, 95); fill-opacity: 1; white-space: pre;" transform="translate(0,412)">2</text></g><g class="ytick"><text text-anchor="end" x="51.4" y="4.55" style="font-family: Tahoma; font-size: 13px; fill: rgb(42, 63, 95); fill-opacity: 1; white-space: pre;" transform="translate(0,334)">4</text></g><g class="ytick"><text text-anchor="end" x="51.4" y="4.55" style="font-family: Tahoma; font-size: 13px; fill: rgb(42, 63, 95); fill-opacity: 1; white-space: pre;" transform="translate(0,256)">6</text></g><g class="ytick"><text text-anchor="end" x="51.4" y="4.55" style="font-family: Tahoma; font-size: 13px; fill: rgb(42, 63, 95); fill-opacity: 1; white-space: pre;" transform="translate(0,178)">8</text></g><g class="ytick"><text text-anchor="end" x="51.4" y="4.55" style="font-family: Tahoma; font-size: 13px; fill: rgb(42, 63, 95); fill-opacity: 1; white-space: pre;" transform="translate(0,100)">10</text></g></g><g class="overaxes-above"/></g></g><g class="polarlayer"/><g class="smithlayer"/><g class="ternarylayer"/><g class="geolayer"/><g class="funnelarealayer"/><g class="pielayer"/><g class="iciclelayer"/><g class="treemaplayer"/><g class="sunburstlayer"/><g class="glimages"/><defs id="topdefs-f28ae0"><g class="clips"/></defs><g class="layer-above"><g class="imagelayer"/><g class="shapelayer"/></g><g class="infolayer"><g class="g-gtitle"><text class="gtitle" x="18" y="44" text-anchor="start" dy="0.7em" style="opacity: 1; font-family: Tahoma; font-size: 18px; fill: rgb(42, 63, 95); fill-opacity: 1; white-space: pre;"><tspan class="line" dy="0em" x="18" y="44"><tspan style="font-weight:bold">13–25 Episode TV Series Deliver the Strongest Overall Performance</tspan></tspan><tspan class="line" dy="1.3em" x="18" y="44"><tspan style=" fill:#555555; font-size:14px">(Boxplot comparison of Anime TV series score across different episode ranges)</tspan></tspan></text></g><g class="g-xtitle"><text class="xtitle" x="457.5" y="531.3" text-anchor="middle" style="opacity: 1; font-family: Tahoma; font-size: 14px; fill: rgb(42, 63, 95); fill-opacity: 1; white-space: pre;">Episode Range</text></g><g class="g-ytitle"/></g></svg>